<?xml version="1.0" encoding="UTF-8"?>
<svg version="1.1" xmlns="http://www.w3.org/2000/svg" width="469" height="417">
<path d="M0 0 C1.27875 0.00257812 2.5575 0.00515625 3.875 0.0078125 C5.15375 0.00523438 6.4325 0.00265625 7.75 0 C10.875 0.1328125 10.875 0.1328125 11.875 1.1328125 C12.01893457 5.46812168 11.91712061 9.79438981 11.875 14.1328125 C16.495 14.1328125 21.115 14.1328125 25.875 14.1328125 C27.88480581 18.15242411 28.11447017 19.66473622 28.0703125 23.9921875 C28.06064453 25.66474609 28.06064453 25.66474609 28.05078125 27.37109375 C28.02564453 29.10939453 28.02564453 29.10939453 28 30.8828125 C27.99097656 32.05714844 27.98195313 33.23148438 27.97265625 34.44140625 C27.94910063 37.33874786 27.91620652 40.23567691 27.875 43.1328125 C28.53886719 43.09800781 29.20273437 43.06320313 29.88671875 43.02734375 C30.76972656 43.00027344 31.65273438 42.97320312 32.5625 42.9453125 C33.43261719 42.91050781 34.30273438 42.87570313 35.19921875 42.83984375 C37.875 43.1328125 37.875 43.1328125 42.875 46.1328125 C42.875 50.4228125 42.875 54.7128125 42.875 59.1328125 C51.455 59.1328125 60.035 59.1328125 68.875 59.1328125 C68.875 54.8428125 68.875 50.5528125 68.875 46.1328125 C71.64542109 43.36239141 73.64033805 43.73485144 77.5 43.5078125 C79.60375 43.3840625 81.7075 43.2603125 83.875 43.1328125 C84.205 38.8428125 84.535 34.5528125 84.875 30.1328125 C89.89877899 29.295516 93.87567249 29.0466172 98.875 29.1328125 C98.85179687 28.21757813 98.82859375 27.30234375 98.8046875 26.359375 C98.78664063 25.17085937 98.76859375 23.98234375 98.75 22.7578125 C98.72679687 21.57445313 98.70359375 20.39109375 98.6796875 19.171875 C98.875 16.1328125 98.875 16.1328125 100.875 14.1328125 C103.9140625 13.9375 103.9140625 13.9375 107.5 14.0078125 C109.28277344 14.03488281 109.28277344 14.03488281 111.1015625 14.0625 C112.01679688 14.08570312 112.93203125 14.10890625 113.875 14.1328125 C113.86339844 13.28976563 113.85179687 12.44671875 113.83984375 11.578125 C113.82630859 9.93457031 113.82630859 9.93457031 113.8125 8.2578125 C113.80089844 7.16726562 113.78929687 6.07671875 113.77734375 4.953125 C113.875 2.1328125 113.875 2.1328125 114.875 0.1328125 C117.16641286 0.07896729 119.45818188 0.04009163 121.75 0.0078125 C123.66425781 -0.02699219 123.66425781 -0.02699219 125.6171875 -0.0625 C128.875 0.1328125 128.875 0.1328125 130.875 2.1328125 C131.0703125 4.953125 131.0703125 4.953125 131 8.2578125 C130.98195313 9.35351562 130.96390625 10.44921875 130.9453125 11.578125 C130.91050781 12.84269531 130.91050781 12.84269531 130.875 14.1328125 C132.24785156 14.09800781 132.24785156 14.09800781 133.6484375 14.0625 C134.83695312 14.04445313 136.02546875 14.02640625 137.25 14.0078125 C138.43335938 13.98460938 139.61671875 13.96140625 140.8359375 13.9375 C143.875 14.1328125 143.875 14.1328125 145.875 16.1328125 C146.12109566 18.20614052 146.12109566 18.20614052 146.11550903 20.81509399 C146.11963303 22.29590202 146.11963303 22.29590202 146.12384033 23.80662537 C146.11664978 24.89347122 146.10945923 25.98031708 146.10205078 27.10009766 C146.10234283 28.24155746 146.10263489 29.38301727 146.10293579 30.55906677 C146.10153809 34.34674581 146.08595609 38.13423017 146.0703125 41.921875 C146.06658394 44.54218437 146.06373623 47.16249513 146.06173706 49.7828064 C146.05551501 55.98410944 146.03909445 62.18534216 146.01903808 68.3866142 C145.99670157 75.44576667 145.98569132 82.50492246 145.97564721 89.56410146 C145.95472881 104.08704145 145.9195388 118.60992599 145.875 133.1328125 C146.79023438 133.10960937 147.70546875 133.08640625 148.6484375 133.0625 C149.83695312 133.04445312 151.02546875 133.02640625 152.25 133.0078125 C153.43335938 132.98460937 154.61671875 132.96140625 155.8359375 132.9375 C158.875 133.1328125 158.875 133.1328125 160.875 135.1328125 C161.12896729 137.56176758 161.12896729 137.56176758 161.13378906 140.65234375 C161.14009338 141.80694092 161.14639771 142.96153809 161.15289307 144.15112305 C161.14682037 146.02924683 161.14682037 146.02924683 161.140625 147.9453125 C161.14253845 149.22510986 161.1444519 150.50490723 161.14642334 151.82348633 C161.14937382 154.53374043 161.14507955 157.24386277 161.13574219 159.95410156 C161.12434753 163.43130481 161.13090743 166.90819932 161.14288712 170.38539124 C161.15184425 173.69705654 161.14557635 177.00863841 161.140625 180.3203125 C161.14467346 181.57239502 161.14872192 182.82447754 161.15289307 184.11450195 C161.14343658 185.84639771 161.14343658 185.84639771 161.13378906 187.61328125 C161.13219788 188.63317139 161.13060669 189.65306152 161.12896729 190.70385742 C160.875 193.1328125 160.875 193.1328125 158.875 195.1328125 C155.8359375 195.328125 155.8359375 195.328125 152.25 195.2578125 C151.06148438 195.23976563 149.87296875 195.22171875 148.6484375 195.203125 C147.73320312 195.17992187 146.81796875 195.15671875 145.875 195.1328125 C145.88660156 196.05964844 145.89820313 196.98648438 145.91015625 197.94140625 C145.92369141 199.73771484 145.92369141 199.73771484 145.9375 201.5703125 C145.95490234 203.36275391 145.95490234 203.36275391 145.97265625 205.19140625 C145.875 208.1328125 145.875 208.1328125 144.875 209.1328125 C142.69207226 209.36762943 140.50296826 209.54644573 138.3125 209.6953125 C137.11496094 209.77910156 135.91742188 209.86289062 134.68359375 209.94921875 C133.75675781 210.00980469 132.82992188 210.07039062 131.875 210.1328125 C131.81441406 210.97585938 131.75382812 211.81890625 131.69140625 212.6875 C131.60761719 213.78320312 131.52382813 214.87890625 131.4375 216.0078125 C131.35628906 217.09835937 131.27507812 218.18890625 131.19140625 219.3125 C130.875 222.1328125 130.875 222.1328125 129.875 224.1328125 C120.305 224.4628125 110.735 224.7928125 100.875 225.1328125 C100.875 229.4228125 100.875 233.7128125 100.875 238.1328125 C92.69574945 242.22243777 79.3515207 240.28129476 70.34570312 240.27807617 C68.95437532 240.28107826 67.56304834 240.28448315 66.17172241 240.28825378 C62.44085806 240.2969808 58.71001672 240.29942675 54.97914314 240.30006957 C52.64292798 240.30078533 50.3067185 240.30292925 47.97050476 240.30556679 C39.80683018 240.3147752 31.64317179 240.31890642 23.47949219 240.31811523 C15.88690434 240.31751221 8.29438701 240.32811941 0.70181704 240.3438589 C-5.84118339 240.35693645 -12.3841607 240.3622992 -18.92717409 240.36165982 C-22.82504557 240.36140537 -26.72285391 240.36422933 -30.62071228 240.37483788 C-34.27833335 240.38452519 -37.93583082 240.38459379 -41.59345627 240.37732124 C-43.56980743 240.37578003 -45.54615861 240.38411329 -47.52249146 240.39276123 C-49.29672989 240.3864695 -49.29672989 240.3864695 -51.10681152 240.38005066 C-52.64197544 240.38086781 -52.64197544 240.38086781 -54.20815277 240.38170147 C-57.125 240.1328125 -57.125 240.1328125 -63.125 238.1328125 C-63.455 233.8428125 -63.785 229.5528125 -64.125 225.1328125 C-67.13947266 225.04193359 -67.13947266 225.04193359 -70.21484375 224.94921875 C-72.15422669 224.88665801 -74.09360873 224.82406393 -76.03295898 224.76049805 C-77.38414147 224.71710027 -78.73538053 224.6754288 -80.08666992 224.63549805 C-82.02536701 224.57791298 -83.96386276 224.51366952 -85.90234375 224.44921875 C-87.07015381 224.41256104 -88.23796387 224.37590332 -89.44116211 224.33813477 C-92.125 224.1328125 -92.125 224.1328125 -93.125 223.1328125 C-93.35981693 220.94988476 -93.53863323 218.76078076 -93.6875 216.5703125 C-93.77128906 215.37277344 -93.85507813 214.17523438 -93.94140625 212.94140625 C-94.00199219 212.01457031 -94.06257813 211.08773437 -94.125 210.1328125 C-94.83687973 210.12250504 -95.54875946 210.11219757 -96.2822113 210.10157776 C-102.97782826 210.00376352 -109.67335518 209.90127246 -116.36881924 209.79347324 C-119.8113574 209.7382137 -123.253904 209.68478903 -126.6965332 209.63549805 C-130.65064526 209.57880449 -134.60460944 209.51423755 -138.55859375 209.44921875 C-139.80023788 209.43250626 -141.04188202 209.41579376 -142.32115173 209.39857483 C-143.46225906 209.37862961 -144.60336639 209.35868439 -145.77905273 209.33813477 C-146.789431 209.32259048 -147.79980927 209.3070462 -148.84080505 209.29103088 C-151.125 209.1328125 -151.125 209.1328125 -152.125 208.1328125 C-152.35927778 206.11686668 -152.53836124 204.0943385 -152.6875 202.0703125 C-152.77128906 200.96558594 -152.85507813 199.86085938 -152.94140625 198.72265625 C-153.00199219 197.86800781 -153.06257813 197.01335937 -153.125 196.1328125 C-153.92719971 196.11822998 -154.72939941 196.10364746 -155.5559082 196.08862305 C-159.18359699 196.01424531 -162.81035504 195.91755007 -166.4375 195.8203125 C-168.33145508 195.78647461 -168.33145508 195.78647461 -170.26367188 195.75195312 C-171.47216797 195.71650391 -172.68066406 195.68105469 -173.92578125 195.64453125 C-175.04122314 195.61834717 -176.15666504 195.59216309 -177.3059082 195.56518555 C-180.125 195.1328125 -180.125 195.1328125 -181.99414062 193.76953125 C-183.67634867 191.33483291 -183.41537942 189.36022936 -183.3125 186.4453125 C-183.28542969 185.45144531 -183.25835937 184.45757812 -183.23046875 183.43359375 C-183.19566406 182.67433594 -183.16085938 181.91507813 -183.125 181.1328125 C-183.96804687 181.08382812 -184.81109375 181.03484375 -185.6796875 180.984375 C-186.77539062 180.90960938 -187.87109375 180.83484375 -189 180.7578125 C-190.09054688 180.68820313 -191.18109375 180.61859375 -192.3046875 180.546875 C-195.125 180.1328125 -195.125 180.1328125 -197.125 178.1328125 C-197.35205078 175.33544922 -197.35205078 175.33544922 -197.3203125 171.8125 C-197.31386719 170.55566406 -197.30742187 169.29882812 -197.30078125 168.00390625 C-197.28402344 166.68519531 -197.26726562 165.36648437 -197.25 164.0078125 C-197.23996983 162.66797529 -197.23084404 161.32813098 -197.22265625 159.98828125 C-197.19902075 156.70294677 -197.16607234 153.41796785 -197.125 150.1328125 C-198.04023438 150.15601563 -198.95546875 150.17921875 -199.8984375 150.203125 C-201.08695313 150.22117188 -202.27546875 150.23921875 -203.5 150.2578125 C-204.68335938 150.28101563 -205.86671875 150.30421875 -207.0859375 150.328125 C-210.125 150.1328125 -210.125 150.1328125 -212.125 148.1328125 C-212.37896729 146.3112793 -212.37896729 146.3112793 -212.38378906 144.08203125 C-212.39009338 143.24776611 -212.39639771 142.41350098 -212.40289307 141.55395508 C-212.3988446 140.65185303 -212.39479614 139.74975098 -212.390625 138.8203125 C-212.39253845 137.89565186 -212.3944519 136.97099121 -212.39642334 136.01831055 C-212.39778566 134.06135791 -212.39408596 132.10439626 -212.38574219 130.14746094 C-212.37504334 127.1449766 -212.38563591 124.14309063 -212.3984375 121.140625 C-212.39711591 119.24218617 -212.39455354 117.34374772 -212.390625 115.4453125 C-212.39467346 114.54321045 -212.39872192 113.6411084 -212.40289307 112.71166992 C-212.39658875 111.87740479 -212.39028442 111.04313965 -212.38378906 110.18359375 C-212.38219788 109.44794189 -212.38060669 108.71229004 -212.37896729 107.9543457 C-212.125 106.1328125 -212.125 106.1328125 -210.125 104.1328125 C-207.23583984 103.90576172 -207.23583984 103.90576172 -203.5859375 103.9375 C-201.63300781 103.94716797 -201.63300781 103.94716797 -199.640625 103.95703125 C-198.26041405 103.97374321 -196.88020571 103.99067311 -195.5 104.0078125 C-194.11198548 104.01784244 -192.72396411 104.02696827 -191.3359375 104.03515625 C-187.93211974 104.05879387 -184.52864494 104.09174383 -181.125 104.1328125 C-178.99420309 108.39440632 -180.07997683 114.54044952 -180.125 119.1328125 C-175.505 119.1328125 -170.885 119.1328125 -166.125 119.1328125 C-164.74191219 121.89898813 -165.01289804 124.1429925 -165.02734375 127.234375 C-165.03056641 128.44609375 -165.03378906 129.6578125 -165.03710938 130.90625 C-165.04967773 132.81277344 -165.04967773 132.81277344 -165.0625 134.7578125 C-165.06701172 136.0365625 -165.07152344 137.3153125 -165.07617188 138.6328125 C-165.08798797 141.79952542 -165.10446185 144.96614606 -165.125 148.1328125 C-164.20976562 148.10960937 -163.29453125 148.08640625 -162.3515625 148.0625 C-161.16304687 148.04445312 -159.97453125 148.02640625 -158.75 148.0078125 C-157.56664062 147.98460937 -156.38328125 147.96140625 -155.1640625 147.9375 C-152.125 148.1328125 -152.125 148.1328125 -150.125 150.1328125 C-149.795 154.0928125 -149.465 158.0528125 -149.125 162.1328125 C-140.875 162.1328125 -132.625 162.1328125 -124.125 162.1328125 C-124.06441406 158.11351562 -124.00382812 154.09421875 -123.94140625 149.953125 C-123.89045516 146.752706 -123.83853502 143.55230599 -123.78595734 140.35191345 C-123.73068285 136.9711326 -123.67712484 133.59034431 -123.62768555 130.20947266 C-123.57010333 126.33226984 -123.50637434 122.4552102 -123.44140625 118.578125 C-123.42469376 117.36351593 -123.40798126 116.14890686 -123.39076233 114.89749146 C-123.37081711 113.77648041 -123.35087189 112.65546936 -123.33032227 111.50048828 C-123.31477798 110.51009552 -123.2992337 109.51970276 -123.28321838 108.4992981 C-123.125 106.1328125 -123.125 106.1328125 -122.125 104.1328125 C-117.505 104.1328125 -112.885 104.1328125 -108.125 104.1328125 C-108.16625 102.0290625 -108.2075 99.9253125 -108.25 97.7578125 C-108.3203125 94.171875 -108.3203125 94.171875 -108.125 91.1328125 C-105.44407309 88.45188559 -103.73332637 88.74610993 -100 88.5078125 C-98.35644531 88.39566406 -98.35644531 88.39566406 -96.6796875 88.28125 C-95.83664063 88.23226562 -94.99359375 88.18328125 -94.125 88.1328125 C-94.06441406 87.20597656 -94.00382812 86.27914062 -93.94140625 85.32421875 C-93.81572266 83.52791016 -93.81572266 83.52791016 -93.6875 81.6953125 C-93.56568359 79.90287109 -93.56568359 79.90287109 -93.44140625 78.07421875 C-93.125 75.1328125 -93.125 75.1328125 -92.125 74.1328125 C-90.0541528 73.974386 -87.97821971 73.88156828 -85.90234375 73.81640625 C-84.01225586 73.75356445 -84.01225586 73.75356445 -82.08398438 73.68945312 C-80.74349264 73.64963654 -79.4029978 73.60992436 -78.0625 73.5703125 C-76.71808477 73.52713208 -75.3736834 73.48351794 -74.02929688 73.43945312 C-70.7279766 73.33295892 -67.42657764 73.2309479 -64.125 73.1328125 C-64.14820313 72.45734375 -64.17140625 71.781875 -64.1953125 71.0859375 C-64.21335938 70.19390625 -64.23140625 69.301875 -64.25 68.3828125 C-64.27320313 67.50109375 -64.29640625 66.619375 -64.3203125 65.7109375 C-64.125 63.1328125 -64.125 63.1328125 -62.125 59.1328125 C-57.835 59.1328125 -53.545 59.1328125 -49.125 59.1328125 C-49.16625 57.0290625 -49.2075 54.9253125 -49.25 52.7578125 C-49.3203125 49.171875 -49.3203125 49.171875 -49.125 46.1328125 C-46.35457891 43.36239141 -44.35966195 43.73485144 -40.5 43.5078125 C-39.31148437 43.43304688 -38.12296875 43.35828125 -36.8984375 43.28125 C-35.98320312 43.23226562 -35.06796875 43.18328125 -34.125 43.1328125 C-34.08761719 42.28976563 -34.05023438 41.44671875 -34.01171875 40.578125 C-33.91310547 38.93457031 -33.91310547 38.93457031 -33.8125 37.2578125 C-33.75449219 36.16726562 -33.69648438 35.07671875 -33.63671875 33.953125 C-33.46785156 33.02242187 -33.29898438 32.09171875 -33.125 31.1328125 C-29.70405758 28.85218422 -28.44312778 28.91356243 -24.4375 29.0078125 C-22.94669922 29.03488281 -22.94669922 29.03488281 -21.42578125 29.0625 C-20.66652344 29.08570312 -19.90726563 29.10890625 -19.125 29.1328125 C-19.14820313 28.21757813 -19.17140625 27.30234375 -19.1953125 26.359375 C-19.21335938 25.17085937 -19.23140625 23.98234375 -19.25 22.7578125 C-19.27320313 21.57445313 -19.29640625 20.39109375 -19.3203125 19.171875 C-19.125 16.1328125 -19.125 16.1328125 -17.125 14.1328125 C-14.0859375 13.9375 -14.0859375 13.9375 -10.5 14.0078125 C-8.71722656 14.03488281 -8.71722656 14.03488281 -6.8984375 14.0625 C-5.98320312 14.08570312 -5.06796875 14.10890625 -4.125 14.1328125 C-4.13660156 13.20597656 -4.14820313 12.27914062 -4.16015625 11.32421875 C-4.16917969 10.12667969 -4.17820313 8.92914063 -4.1875 7.6953125 C-4.19910156 6.50035156 -4.21070313 5.30539063 -4.22265625 4.07421875 C-4.08795671 0.01706849 -4.08333716 0.17354183 0 0 Z M-1.125 32.1328125 C-1.455 36.4228125 -1.785 40.7128125 -2.125 45.1328125 C-3.12402344 45.19339844 -4.12304688 45.25398438 -5.15234375 45.31640625 C-7.08787109 45.44208984 -7.08787109 45.44208984 -9.0625 45.5703125 C-10.35027344 45.65152344 -11.63804687 45.73273438 -12.96484375 45.81640625 C-15.98523957 45.78200438 -15.98523957 45.78200438 -17.125 47.1328125 C-17.19730993 49.94838034 -17.12123631 52.75073461 -17.0625 55.56640625 C-17.125 58.1328125 -17.125 58.1328125 -18.125 60.1328125 C-22.44473499 60.74090269 -26.76659754 60.87892498 -31.125 61.1328125 C-31.125 65.4228125 -31.125 69.7128125 -31.125 74.1328125 C-22.215 74.1328125 -13.305 74.1328125 -4.125 74.1328125 C-3.795 69.5128125 -3.465 64.8928125 -3.125 60.1328125 C1.11647487 59.28451753 4.60044313 59.1328125 8.875 59.1328125 C10.15926897 58.07331198 10.15926897 58.07331198 9.98852539 55.63256836 C9.98328857 54.54854736 9.97805176 53.46452637 9.97265625 52.34765625 C9.96943359 51.17783203 9.96621094 50.00800781 9.96289062 48.80273438 C9.95451172 47.57103516 9.94613281 46.33933594 9.9375 45.0703125 C9.93298828 43.83474609 9.92847656 42.59917969 9.92382812 41.32617188 C9.91199608 38.26167133 9.89551173 35.19726529 9.875 32.1328125 C6.245 32.1328125 2.615 32.1328125 -1.125 32.1328125 Z M116.875 32.1328125 C116.545 36.4228125 116.215 40.7128125 115.875 45.1328125 C114.87597656 45.19339844 113.87695312 45.25398438 112.84765625 45.31640625 C110.91212891 45.44208984 110.91212891 45.44208984 108.9375 45.5703125 C107.64972656 45.65152344 106.36195313 45.73273438 105.03515625 45.81640625 C102.01476043 45.78200438 102.01476043 45.78200438 100.875 47.1328125 C100.77648829 48.96397133 100.74527371 50.79901183 100.75 52.6328125 C100.74742187 53.633125 100.74484375 54.6334375 100.7421875 55.6640625 C100.59629618 58.07680872 100.59629618 58.07680872 101.875 59.1328125 C104.22813555 59.20552991 106.58333668 59.21652118 108.9375 59.1953125 C112.3715625 59.164375 112.3715625 59.164375 115.875 59.1328125 C116.205 64.0828125 116.535 69.0328125 116.875 74.1328125 C120.505 74.1328125 124.135 74.1328125 127.875 74.1328125 C128.04221165 68.31225462 128.20281152 62.49156704 128.35717773 56.6706543 C128.41067894 54.68883301 128.4660143 52.70706038 128.52319336 50.7253418 C128.60487855 47.88340757 128.68005172 45.04136588 128.75390625 42.19921875 C128.78094131 41.30755508 128.80797638 40.41589142 128.83583069 39.49720764 C128.88775915 37.37633804 128.88688911 35.25428441 128.875 33.1328125 C127.81521067 31.84668574 127.81521067 31.84668574 125.37109375 32.03515625 C122.5390625 32.06770833 119.70703125 32.10026042 116.875 32.1328125 Z M-2.125 151.1328125 C-2.53057732 160.16287218 -2.06184239 169.14916319 -1.125 178.1328125 C2.175 178.1328125 5.475 178.1328125 8.875 178.1328125 C9.66341864 174.65186984 10.00328808 171.43372402 10.0078125 167.8671875 C10.00910156 166.89523438 10.01039063 165.92328125 10.01171875 164.921875 C10.00785156 163.91898438 10.00398437 162.91609375 10 161.8828125 C10.00386719 160.86445313 10.00773438 159.84609375 10.01171875 158.796875 C10.01042969 157.83007812 10.00914062 156.86328125 10.0078125 155.8671875 C10.00668457 154.98256836 10.00555664 154.09794922 10.00439453 153.18652344 C10.10269098 151.14008875 10.10269098 151.14008875 8.875 150.1328125 C7.21070949 150.03457313 5.54218069 150.00307619 3.875 150.0078125 C2.9675 150.00523437 2.06 150.00265625 1.125 150 C-1.09466611 149.88107471 -1.09466611 149.88107471 -2.125 151.1328125 Z M101.875 150.1328125 C100.58138006 152.72005239 100.74551051 154.61394253 100.7421875 157.5078125 C100.74089844 158.57515625 100.73960937 159.6425 100.73828125 160.7421875 C100.74214844 161.86109375 100.74601562 162.98 100.75 164.1328125 C100.74613281 165.25171875 100.74226563 166.370625 100.73828125 167.5234375 C100.73957031 168.59078125 100.74085938 169.658125 100.7421875 170.7578125 C100.74331543 171.74007812 100.74444336 172.72234375 100.74560547 173.734375 C100.71604765 176.14689144 100.71604765 176.14689144 101.875 178.1328125 C103.68742052 178.15968529 105.49995233 178.17914965 107.3125 178.1953125 C108.32183594 178.20691406 109.33117187 178.21851563 110.37109375 178.23046875 C112.81521067 178.41893926 112.81521067 178.41893926 113.875 177.1328125 C113.97471786 175.21822968 114.00580589 173.29998933 114.0078125 171.3828125 C114.00910156 170.2175 114.01039063 169.0521875 114.01171875 167.8515625 C114.00785156 166.624375 114.00398438 165.3971875 114 164.1328125 C114.00386719 162.905625 114.00773437 161.6784375 114.01171875 160.4140625 C114.01042969 159.24875 114.00914062 158.0834375 114.0078125 156.8828125 C114.00668457 155.80515625 114.00555664 154.7275 114.00439453 153.6171875 C114.15592371 151.19061253 114.15592371 151.19061253 112.875 150.1328125 C111.02212498 150.06054748 109.16666122 150.0490003 107.3125 150.0703125 C106.30058594 150.07933594 105.28867187 150.08835938 104.24609375 150.09765625 C103.46363281 150.10925781 102.68117188 150.12085938 101.875 150.1328125 Z " fill="#FDFDFD" transform="translate(249.125,70.8671875)"/>
<path d="M0 0 C1.27875 0.00257812 2.5575 0.00515625 3.875 0.0078125 C5.15375 0.00523438 6.4325 0.00265625 7.75 0 C10.875 0.1328125 10.875 0.1328125 11.875 1.1328125 C12.01893457 5.46812168 11.91712061 9.79438981 11.875 14.1328125 C16.495 14.1328125 21.115 14.1328125 25.875 14.1328125 C27.88480581 18.15242411 28.11447017 19.66473622 28.0703125 23.9921875 C28.06386719 25.10722656 28.05742187 26.22226563 28.05078125 27.37109375 C28.03402344 28.52996094 28.01726562 29.68882813 28 30.8828125 C27.99097656 32.05714844 27.98195313 33.23148438 27.97265625 34.44140625 C27.94910063 37.33874786 27.91620652 40.23567691 27.875 43.1328125 C28.53886719 43.09800781 29.20273437 43.06320313 29.88671875 43.02734375 C30.76972656 43.00027344 31.65273438 42.97320312 32.5625 42.9453125 C33.43261719 42.91050781 34.30273438 42.87570313 35.19921875 42.83984375 C37.875 43.1328125 37.875 43.1328125 42.875 46.1328125 C42.875 50.4228125 42.875 54.7128125 42.875 59.1328125 C51.455 59.1328125 60.035 59.1328125 68.875 59.1328125 C68.875 54.8428125 68.875 50.5528125 68.875 46.1328125 C71.64542109 43.36239141 73.64033805 43.73485144 77.5 43.5078125 C79.60375 43.3840625 81.7075 43.2603125 83.875 43.1328125 C84.205 38.8428125 84.535 34.5528125 84.875 30.1328125 C89.89877899 29.295516 93.87567249 29.0466172 98.875 29.1328125 C98.85179687 28.21757813 98.82859375 27.30234375 98.8046875 26.359375 C98.78664063 25.17085937 98.76859375 23.98234375 98.75 22.7578125 C98.72679687 21.57445313 98.70359375 20.39109375 98.6796875 19.171875 C98.875 16.1328125 98.875 16.1328125 100.875 14.1328125 C103.9140625 13.9375 103.9140625 13.9375 107.5 14.0078125 C109.28277344 14.03488281 109.28277344 14.03488281 111.1015625 14.0625 C112.01679688 14.08570312 112.93203125 14.10890625 113.875 14.1328125 C113.86339844 13.28976563 113.85179687 12.44671875 113.83984375 11.578125 C113.83082031 10.48242188 113.82179688 9.38671875 113.8125 8.2578125 C113.80089844 7.16726562 113.78929687 6.07671875 113.77734375 4.953125 C113.875 2.1328125 113.875 2.1328125 114.875 0.1328125 C117.16641286 0.07896729 119.45818188 0.04009163 121.75 0.0078125 C123.66425781 -0.02699219 123.66425781 -0.02699219 125.6171875 -0.0625 C128.875 0.1328125 128.875 0.1328125 130.875 2.1328125 C131.0703125 4.953125 131.0703125 4.953125 131 8.2578125 C130.98195313 9.35351562 130.96390625 10.44921875 130.9453125 11.578125 C130.92210937 12.42117187 130.89890625 13.26421875 130.875 14.1328125 C132.24785156 14.09800781 132.24785156 14.09800781 133.6484375 14.0625 C134.83695313 14.04445313 136.02546875 14.02640625 137.25 14.0078125 C138.43335938 13.98460938 139.61671875 13.96140625 140.8359375 13.9375 C143.875 14.1328125 143.875 14.1328125 145.875 16.1328125 C146.12109566 18.20614052 146.12109566 18.20614052 146.11550903 20.81509399 C146.11963303 22.29590202 146.11963303 22.29590202 146.12384033 23.80662537 C146.1130545 25.43689415 146.1130545 25.43689415 146.10205078 27.10009766 C146.10234283 28.24155746 146.10263489 29.38301727 146.10293579 30.55906677 C146.10153809 34.34674581 146.08595609 38.13423017 146.0703125 41.921875 C146.06658394 44.54218437 146.06373623 47.16249513 146.06173706 49.7828064 C146.05551501 55.98410944 146.03909445 62.18534216 146.01903808 68.3866142 C145.99670157 75.44576667 145.98569132 82.50492246 145.97564721 89.56410146 C145.95472881 104.08704235 145.91913704 118.60992409 145.875 133.1328125 C149.835 133.1328125 153.795 133.1328125 157.875 133.1328125 C157.545 133.7928125 157.215 134.4528125 156.875 135.1328125 C152.915 135.1328125 148.955 135.1328125 144.875 135.1328125 C144.545 96.5228125 144.215 57.9128125 143.875 18.1328125 C138.925 17.8028125 133.975 17.4728125 128.875 17.1328125 C128.875 12.1828125 128.875 7.2328125 128.875 2.1328125 C124.915 2.1328125 120.955 2.1328125 116.875 2.1328125 C116.875 6.7528125 116.875 11.3728125 116.875 16.1328125 C113.99084117 17.57489191 111.45778472 17.22676137 108.25 17.1953125 C107.06148437 17.18628906 105.87296875 17.17726563 104.6484375 17.16796875 C103.73320312 17.15636719 102.81796875 17.14476563 101.875 17.1328125 C101.88660156 18.13183594 101.89820313 19.13085938 101.91015625 20.16015625 C101.91917969 21.45050781 101.92820312 22.74085937 101.9375 24.0703125 C101.94910156 25.35808594 101.96070313 26.64585938 101.97265625 27.97265625 C101.875 31.1328125 101.875 31.1328125 100.875 32.1328125 C96.20654772 32.27707864 91.54634047 32.17489665 86.875 32.1328125 C86.875 36.7528125 86.875 41.3728125 86.875 46.1328125 C81.595 46.1328125 76.315 46.1328125 70.875 46.1328125 C70.875 51.0828125 70.875 56.0328125 70.875 61.1328125 C60.645 61.1328125 50.415 61.1328125 39.875 61.1328125 C39.875 56.1828125 39.875 51.2328125 39.875 46.1328125 C34.595 46.1328125 29.315 46.1328125 23.875 46.1328125 C23.875 36.8928125 23.875 27.6528125 23.875 18.1328125 C22.225 18.4628125 20.575 18.7928125 18.875 19.1328125 C18.875 18.4728125 18.875 17.8128125 18.875 17.1328125 C17.575625 17.1534375 16.27625 17.1740625 14.9375 17.1953125 C13.58334367 17.21680704 12.22743917 17.20429449 10.875 17.1328125 C8.99675109 15.25456359 9.48397603 12.09345974 9.3125 9.5703125 C9.22871094 8.37277344 9.14492188 7.17523438 9.05859375 5.94140625 C8.99800781 5.01457031 8.93742187 4.08773437 8.875 3.1328125 C5.575 3.1328125 2.275 3.1328125 -1.125 3.1328125 C-1.11339844 4.13183594 -1.10179687 5.13085938 -1.08984375 6.16015625 C-1.08082031 7.45050781 -1.07179687 8.74085937 -1.0625 10.0703125 C-1.05089844 11.35808594 -1.03929687 12.64585938 -1.02734375 13.97265625 C-1.125 17.1328125 -1.125 17.1328125 -2.125 18.1328125 C-6.46030918 18.27674707 -10.78657731 18.17493311 -15.125 18.1328125 C-15.455 22.4228125 -15.785 26.7128125 -16.125 31.1328125 C-20.415 31.1328125 -24.705 31.1328125 -29.125 31.1328125 C-29.125 30.4728125 -29.125 29.8128125 -29.125 29.1328125 C-25.825 29.1328125 -22.525 29.1328125 -19.125 29.1328125 C-19.14820313 28.21757813 -19.17140625 27.30234375 -19.1953125 26.359375 C-19.21335938 25.17085937 -19.23140625 23.98234375 -19.25 22.7578125 C-19.27320313 21.57445313 -19.29640625 20.39109375 -19.3203125 19.171875 C-19.125 16.1328125 -19.125 16.1328125 -17.125 14.1328125 C-14.0859375 13.9375 -14.0859375 13.9375 -10.5 14.0078125 C-8.71722656 14.03488281 -8.71722656 14.03488281 -6.8984375 14.0625 C-5.98320312 14.08570312 -5.06796875 14.10890625 -4.125 14.1328125 C-4.13660156 13.20597656 -4.14820313 12.27914062 -4.16015625 11.32421875 C-4.16917969 10.12667969 -4.17820313 8.92914063 -4.1875 7.6953125 C-4.19910156 6.50035156 -4.21070313 5.30539063 -4.22265625 4.07421875 C-4.08795671 0.01706849 -4.08333716 0.17354183 0 0 Z " fill="#CCC4C5" transform="translate(249.125,70.8671875)"/>
<path d="M0 0 C0.33 0 0.66 0 1 0 C1.04629419 7.3973076 1.08185426 14.79458407 1.10362434 22.19200706 C1.1140717 25.62675459 1.12824805 29.06140317 1.15087891 32.49609375 C1.17672063 36.44269638 1.18646493 40.38925863 1.1953125 44.3359375 C1.20563507 45.57242035 1.21595764 46.8089032 1.22659302 48.08285522 C1.22674408 49.22388702 1.22689514 50.36491882 1.22705078 51.54052734 C1.231492 52.548685 1.23593323 53.55684265 1.24050903 54.59555054 C1 57 1 57 -1 59 C-4.0390625 59.1953125 -4.0390625 59.1953125 -7.625 59.125 C-8.81351562 59.10695313 -10.00203125 59.08890625 -11.2265625 59.0703125 C-12.59941406 59.03550781 -12.59941406 59.03550781 -14 59 C-13.98839844 59.92683594 -13.97679687 60.85367188 -13.96484375 61.80859375 C-13.95130859 63.60490234 -13.95130859 63.60490234 -13.9375 65.4375 C-13.92589844 66.63246094 -13.91429687 67.82742188 -13.90234375 69.05859375 C-14 72 -14 72 -15 73 C-17.18292774 73.23481693 -19.37203174 73.41363323 -21.5625 73.5625 C-23.35880859 73.68818359 -23.35880859 73.68818359 -25.19140625 73.81640625 C-26.11824219 73.87699219 -27.04507812 73.93757813 -28 74 C-28.06058594 74.84304688 -28.12117188 75.68609375 -28.18359375 76.5546875 C-28.26738281 77.65039062 -28.35117187 78.74609375 -28.4375 79.875 C-28.51871094 80.96554687 -28.59992188 82.05609375 -28.68359375 83.1796875 C-29 86 -29 86 -30 88 C-39.57 88.33 -49.14 88.66 -59 89 C-59 93.29 -59 97.58 -59 102 C-67.17925055 106.08962527 -80.5234793 104.14848226 -89.52929688 104.14526367 C-90.92062468 104.14826576 -92.31195166 104.15167065 -93.70327759 104.15544128 C-97.43414194 104.1641683 -101.16498328 104.16661425 -104.89585686 104.16725707 C-107.23207202 104.16797283 -109.5682815 104.17011675 -111.90449524 104.17275429 C-120.06816982 104.1819627 -128.23182821 104.18609392 -136.39550781 104.18530273 C-143.98809566 104.18469971 -151.58061299 104.19530691 -159.17318296 104.2110464 C-165.71618339 104.22412395 -172.2591607 104.2294867 -178.80217409 104.22884732 C-182.70004557 104.22859287 -186.59785391 104.23141683 -190.49571228 104.24202538 C-194.15333335 104.25171269 -197.81083082 104.25178129 -201.46845627 104.24450874 C-203.44480743 104.24296753 -205.42115861 104.25130079 -207.39749146 104.25994873 C-208.58031708 104.25575424 -209.7631427 104.25155975 -210.98181152 104.24723816 C-212.51697544 104.24805531 -212.51697544 104.24805531 -214.08315277 104.24888897 C-217 104 -217 104 -223 102 C-223.33 97.71 -223.66 93.42 -224 89 C-226.00964844 88.93941406 -228.01929688 88.87882812 -230.08984375 88.81640625 C-232.02922669 88.75384551 -233.96860873 88.69125143 -235.90795898 88.62768555 C-237.25914147 88.58428777 -238.61038053 88.5426163 -239.96166992 88.50268555 C-241.90036701 88.44510048 -243.83886276 88.38085702 -245.77734375 88.31640625 C-246.94515381 88.27974854 -248.11296387 88.24309082 -249.31616211 88.20532227 C-252 88 -252 88 -253 87 C-253.23481693 84.81707226 -253.41363323 82.62796826 -253.5625 80.4375 C-253.64628906 79.23996094 -253.73007813 78.04242188 -253.81640625 76.80859375 C-253.87699219 75.88175781 -253.93757813 74.95492187 -254 74 C-254.71187973 73.98969254 -255.42375946 73.97938507 -256.1572113 73.96876526 C-262.85282826 73.87095102 -269.54835518 73.76845996 -276.24381924 73.66066074 C-279.6863574 73.6054012 -283.128904 73.55197653 -286.5715332 73.50268555 C-290.52564526 73.44599199 -294.47960944 73.38142505 -298.43359375 73.31640625 C-300.29605995 73.29133751 -300.29605995 73.29133751 -302.19615173 73.26576233 C-303.33725906 73.24581711 -304.47836639 73.22587189 -305.65405273 73.20532227 C-307.16962013 73.18200584 -307.16962013 73.18200584 -308.71580505 73.15821838 C-311 73 -311 73 -312 72 C-312.495 66.06 -312.495 66.06 -313 60 C-321.91 59.67 -330.82 59.34 -340 59 C-340 58.67 -340 58.34 -340 58 C-325.15 57.505 -325.15 57.505 -310 57 C-310 61.95 -310 66.9 -310 72 C-290.53 71.67 -271.06 71.34 -251 71 C-250 77 -250 77 -250 86 C-240.1 86 -230.2 86 -220 86 C-220.33 90.62 -220.66 95.24 -221 100 C-168.2 100.33 -115.4 100.66 -61 101 C-61 100.01 -61 99.02 -61 98 C-61.66 97.67 -62.32 97.34 -63 97 C-62.67 96.67 -62.34 96.34 -62 96 C-61.79300437 94.50503158 -61.63320741 93.0033408 -61.5 91.5 C-61.11111111 87.11111111 -61.11111111 87.11111111 -60 86 C-57.92737924 85.91232888 -55.85179706 85.89304127 -53.77734375 85.90234375 C-51.88725586 85.90717773 -51.88725586 85.90717773 -49.95898438 85.91210938 C-48.61848891 85.92046597 -47.27799412 85.92893093 -45.9375 85.9375 C-44.59310058 85.9425134 -43.2486994 85.94707658 -41.90429688 85.95117188 C-38.60284567 85.96300503 -35.3014174 85.98094114 -32 86 C-32 81.38 -32 76.76 -32 72 C-24.08 71.505 -24.08 71.505 -16 71 C-15.67 66.38 -15.34 61.76 -15 57 C-11.7 57 -8.4 57 -5 57 C-5 56.34 -5 55.68 -5 55 C-3.68 55.33 -2.36 55.66 -1 56 C-1.00222061 55.31317642 -1.00444122 54.62635284 -1.00672913 53.91871643 C-1.02877895 46.79794838 -1.04390533 39.67718996 -1.05493164 32.55639648 C-1.05997383 29.89558519 -1.06680736 27.23477668 -1.07543945 24.57397461 C-1.08751009 20.75894484 -1.09322929 16.94395156 -1.09765625 13.12890625 C-1.10281754 11.93100967 -1.10797882 10.7331131 -1.11329651 9.49891663 C-1.11340981 7.84731789 -1.11340981 7.84731789 -1.11352539 6.16235352 C-1.115746 5.18750504 -1.11796661 4.21265656 -1.12025452 3.20826721 C-1 1 -1 1 0 0 Z " fill="#B9B4B5" transform="translate(409,207)"/>
<path d="M0 0 C0.99 0.495 0.99 0.495 2 1 C1.67 5.95 1.34 10.9 1 16 C-0.5675 16.144375 -2.135 16.28875 -3.75 16.4375 C-6.93207999 16.73058631 -9.91915045 17.14340865 -13 18 C-12.97679687 18.91523437 -12.95359375 19.83046875 -12.9296875 20.7734375 C-12.91164063 21.96195313 -12.89359375 23.15046875 -12.875 24.375 C-12.85179687 25.55835937 -12.82859375 26.74171875 -12.8046875 27.9609375 C-13 31 -13 31 -15 33 C-19.34395071 33.27917421 -23.64350967 33.08542138 -28 33 C-28 37.29 -28 41.58 -28 46 C-38.56 46 -49.12 46 -60 46 C-60 50.95 -60 55.9 -60 61 C-64.62 61 -69.24 61 -74 61 C-74 66.28 -74 71.56 -74 77 C-78.29 77 -82.58 77 -87 77 C-87.33 96.47 -87.66 115.94 -88 136 C-98.56 136 -109.12 136 -120 136 C-120 130.72 -120 125.44 -120 120 C-124.95 120 -129.9 120 -135 120 C-135 110.43 -135 100.86 -135 91 C-134.34 91 -133.68 91 -133 91 C-133 99.91 -133 108.82 -133 118 C-128.71 118 -124.42 118 -120 118 C-118 120 -118 120 -117 132 C-108.75 132 -100.5 132 -92 132 C-91.93941406 127.98070312 -91.87882812 123.96140625 -91.81640625 119.8203125 C-91.76545516 116.6198935 -91.71353502 113.41949349 -91.66095734 110.21910095 C-91.60568285 106.8383201 -91.55212484 103.45753181 -91.50268555 100.07666016 C-91.44510333 96.19945734 -91.38137434 92.3223977 -91.31640625 88.4453125 C-91.29969376 87.23070343 -91.28298126 86.01609436 -91.26576233 84.76467896 C-91.24581711 83.64366791 -91.22587189 82.52265686 -91.20532227 81.36767578 C-91.18977798 80.37728302 -91.1742337 79.38689026 -91.15821838 78.3664856 C-91 76 -91 76 -90 74 C-85.38 74 -80.76 74 -76 74 C-76.04125 71.89625 -76.0825 69.7925 -76.125 67.625 C-76.1953125 64.0390625 -76.1953125 64.0390625 -76 61 C-73.31907309 58.31907309 -71.60832637 58.61329743 -67.875 58.375 C-66.77929688 58.30023438 -65.68359375 58.22546875 -64.5546875 58.1484375 C-63.71164063 58.09945312 -62.86859375 58.05046875 -62 58 C-61.93941406 57.07316406 -61.87882812 56.14632812 -61.81640625 55.19140625 C-61.69072266 53.39509766 -61.69072266 53.39509766 -61.5625 51.5625 C-61.44068359 49.77005859 -61.44068359 49.77005859 -61.31640625 47.94140625 C-61 45 -61 45 -60 44 C-57.9291528 43.8415735 -55.85321971 43.74875578 -53.77734375 43.68359375 C-52.51728516 43.64169922 -51.25722656 43.59980469 -49.95898438 43.55664062 C-48.61849264 43.51682404 -47.2779978 43.47711186 -45.9375 43.4375 C-44.59308477 43.39431958 -43.2486834 43.35070544 -41.90429688 43.30664062 C-38.6029766 43.20014642 -35.30157764 43.0981354 -32 43 C-32.02320313 42.32453125 -32.04640625 41.6490625 -32.0703125 40.953125 C-32.08835937 40.06109375 -32.10640625 39.1690625 -32.125 38.25 C-32.14820313 37.36828125 -32.17140625 36.4865625 -32.1953125 35.578125 C-32 33 -32 33 -30 29 C-25.71 29 -21.42 29 -17 29 C-17.04125 26.89625 -17.0825 24.7925 -17.125 22.625 C-17.1953125 19.0390625 -17.1953125 19.0390625 -17 16 C-14.22957891 13.22957891 -12.23466195 13.60203894 -8.375 13.375 C-7.18648438 13.30023438 -5.99796875 13.22546875 -4.7734375 13.1484375 C-3.85820312 13.09945312 -2.94296875 13.05046875 -2 13 C-1.93941406 12.14535156 -1.87882813 11.29070312 -1.81640625 10.41015625 C-1.73261719 9.30542969 -1.64882812 8.20070313 -1.5625 7.0625 C-1.44068359 5.40927734 -1.44068359 5.40927734 -1.31640625 3.72265625 C-1 1 -1 1 0 0 Z " fill="#F4EEF1" transform="translate(217,101)"/>
<path d="M0 0 C5.94 0 11.88 0 18 0 C18.02464296 6.67520882 18.04283267 13.3503914 18.05493164 20.02563477 C18.05997325 22.29842591 18.06680637 24.5712138 18.07543945 26.84399414 C18.08751261 30.10303551 18.09322987 33.36203417 18.09765625 36.62109375 C18.10281754 37.64400009 18.10797882 38.66690643 18.11329651 39.72080994 C18.11337204 40.66170975 18.11344757 41.60260956 18.11352539 42.57202148 C18.115746 43.40475082 18.11796661 44.23748016 18.12025452 45.09544373 C18 47 18 47 17 48 C14.30345146 48.07319621 11.63308542 48.09242537 8.9375 48.0625 C7.79958008 48.05573242 7.79958008 48.05573242 6.63867188 48.04882812 C4.75908129 48.0370068 2.87953101 48.01907078 1 48 C-1.13079691 43.73840618 -0.04502317 37.59236298 0 33 C-4.95 33 -9.9 33 -15 33 C-15.72477733 29.37611337 -16.0975168 26.92217377 -16 23.375 C-15.92014518 20.45031709 -16.05331513 18.8400546 -17 16 C-11.57364835 14.19121612 -5.66885438 14.94799216 0 15 C0 10.05 0 5.1 0 0 Z M3 3 C2.67 7.29 2.34 11.58 2 16 C1.00097656 16.06058594 0.00195312 16.12117188 -1.02734375 16.18359375 C-2.96287109 16.30927734 -2.96287109 16.30927734 -4.9375 16.4375 C-6.22527344 16.51871094 -7.51304687 16.59992188 -8.83984375 16.68359375 C-11.86023957 16.64919188 -11.86023957 16.64919188 -13 18 C-13.09851171 19.83115883 -13.12972629 21.66619933 -13.125 23.5 C-13.12757813 24.5003125 -13.13015625 25.500625 -13.1328125 26.53125 C-13.27870382 28.94399622 -13.27870382 28.94399622 -12 30 C-9.64686445 30.07271741 -7.29166332 30.08370868 -4.9375 30.0625 C-1.5034375 30.0315625 -1.5034375 30.0315625 2 30 C2.33 34.95 2.66 39.9 3 45 C6.63 45 10.26 45 14 45 C14.16721165 39.17944212 14.32781152 33.35875454 14.48217773 27.5378418 C14.53567894 25.55602051 14.5910143 23.57424788 14.64819336 21.5925293 C14.72987855 18.75059507 14.80505172 15.90855338 14.87890625 13.06640625 C14.90594131 12.17474258 14.93297638 11.28307892 14.96083069 10.36439514 C15.01275915 8.24352554 15.01188911 6.12147191 15 4 C13.94021067 2.71387324 13.94021067 2.71387324 11.49609375 2.90234375 C8.6640625 2.93489583 5.83203125 2.96744792 3 3 Z " fill="#E4DDDE" transform="translate(363,100)"/>
<path d="M0 0 C1.20446777 0.01047363 2.40893555 0.02094727 3.64990234 0.03173828 C5.60283203 0.04140625 5.60283203 0.04140625 7.59521484 0.05126953 C8.9754258 0.06798149 10.35563413 0.08491139 11.73583984 0.10205078 C13.12385436 0.11208072 14.51187574 0.12120655 15.89990234 0.12939453 C19.3037201 0.15303215 22.70719491 0.18598211 26.11083984 0.22705078 C28.24163675 4.4886446 27.15586301 10.6346878 27.11083984 15.22705078 C31.40083984 15.22705078 35.69083984 15.22705078 40.11083984 15.22705078 C40.11083984 15.55705078 40.11083984 15.88705078 40.11083984 16.22705078 C35.16083984 16.22705078 30.21083984 16.22705078 25.11083984 16.22705078 C25.11083984 11.60705078 25.11083984 6.98705078 25.11083984 2.22705078 C16.20083984 2.22705078 7.29083984 2.22705078 -1.88916016 2.22705078 C-1.88916016 15.75705078 -1.88916016 29.28705078 -1.88916016 43.22705078 C3.06083984 42.89705078 8.01083984 42.56705078 13.11083984 42.22705078 C12.78083984 52.78705078 12.45083984 63.34705078 12.11083984 74.22705078 C17.06083984 74.22705078 22.01083984 74.22705078 27.11083984 74.22705078 C27.11083984 78.84705078 27.11083984 83.46705078 27.11083984 88.22705078 C26.12083984 88.22705078 25.13083984 88.22705078 24.11083984 88.22705078 C24.11083984 84.59705078 24.11083984 80.96705078 24.11083984 77.22705078 C23.26779297 77.17806641 22.42474609 77.12908203 21.55615234 77.07861328 C20.46044922 77.00384766 19.36474609 76.92908203 18.23583984 76.85205078 C17.14529297 76.78244141 16.05474609 76.71283203 14.93115234 76.64111328 C12.11083984 76.22705078 12.11083984 76.22705078 10.11083984 74.22705078 C9.88378906 71.4296875 9.88378906 71.4296875 9.91552734 67.90673828 C9.92197266 66.64990234 9.92841797 65.39306641 9.93505859 64.09814453 C9.95181641 62.77943359 9.96857422 61.46072266 9.98583984 60.10205078 C9.99587002 58.76221357 10.00499581 57.42236927 10.01318359 56.08251953 C10.03681909 52.79718506 10.0697675 49.51220613 10.11083984 46.22705078 C8.73798828 46.26185547 8.73798828 46.26185547 7.33740234 46.29736328 C5.55462891 46.32443359 5.55462891 46.32443359 3.73583984 46.35205078 C2.55248047 46.37525391 1.36912109 46.39845703 0.14990234 46.42236328 C-2.88916016 46.22705078 -2.88916016 46.22705078 -4.88916016 44.22705078 C-5.14312744 42.40551758 -5.14312744 42.40551758 -5.14794922 40.17626953 C-5.15425354 39.34200439 -5.16055786 38.50773926 -5.16705322 37.64819336 C-5.16300476 36.74609131 -5.1589563 35.84398926 -5.15478516 34.91455078 C-5.15669861 33.98989014 -5.15861206 33.06522949 -5.1605835 32.11254883 C-5.16194582 30.15559619 -5.15824612 28.19863454 -5.14990234 26.24169922 C-5.1392035 23.23921488 -5.14979606 20.23732891 -5.16259766 17.23486328 C-5.16127607 15.33642446 -5.15871369 13.437986 -5.15478516 11.53955078 C-5.15883362 10.63744873 -5.16288208 9.73534668 -5.16705322 8.8059082 C-5.1607489 7.97164307 -5.15444458 7.13737793 -5.14794922 6.27783203 C-5.14635803 5.54218018 -5.14476685 4.80652832 -5.14312744 4.04858398 C-4.67221152 0.67102694 -3.19469408 0.25106181 0 0 Z " fill="#DBCED0" transform="translate(41.88916015625,174.77294921875)"/>
<path d="M0 0 C4.95 0 9.9 0 15 0 C15 10.56 15 21.12 15 32 C10.71 32 6.42 32 2 32 C2.01160156 32.99902344 2.02320313 33.99804688 2.03515625 35.02734375 C2.04417969 36.31769531 2.05320313 37.60804688 2.0625 38.9375 C2.07410156 40.22527344 2.08570313 41.51304687 2.09765625 42.83984375 C2 46 2 46 1 47 C-1.20650656 47.10012401 -3.41622386 47.1308118 -5.625 47.1328125 C-6.28709473 47.13376923 -6.94918945 47.13472595 -7.63134766 47.13571167 C-9.03352961 47.13639326 -10.4357147 47.13454042 -11.83789062 47.13037109 C-13.99095713 47.12502246 -16.14381502 47.1303167 -18.296875 47.13671875 C-19.65625046 47.13605796 -21.0156258 47.13477679 -22.375 47.1328125 C-23.62023437 47.13168457 -24.86546875 47.13055664 -26.1484375 47.12939453 C-29 47 -29 47 -30 46 C-30.09981214 43.3226862 -30.13879875 40.67695825 -30.125 38 C-30.12886719 37.24976563 -30.13273438 36.49953125 -30.13671875 35.7265625 C-30.12661053 30.12661053 -30.12661053 30.12661053 -29 29 C-24.33154772 28.85573386 -19.67134047 28.95791585 -15 29 C-15 24.38 -15 19.76 -15 15 C-10.05 15 -5.1 15 0 15 C0 10.05 0 5.1 0 0 Z M2 2 C1.67 6.29 1.34 10.58 1 15 C0.00097656 15.06058594 -0.99804688 15.12117188 -2.02734375 15.18359375 C-3.96287109 15.30927734 -3.96287109 15.30927734 -5.9375 15.4375 C-7.22527344 15.51871094 -8.51304687 15.59992188 -9.83984375 15.68359375 C-12.86023957 15.64919188 -12.86023957 15.64919188 -14 17 C-14.07230993 19.81556784 -13.99623631 22.61792211 -13.9375 25.43359375 C-14 28 -14 28 -15 30 C-19.31973499 30.60809019 -23.64159754 30.74611248 -28 31 C-28 35.29 -28 39.58 -28 44 C-19.09 44 -10.18 44 -1 44 C-0.67 39.38 -0.34 34.76 0 30 C4.24147487 29.15170503 7.72544313 29 12 29 C13.28426897 27.94049948 13.28426897 27.94049948 13.11352539 25.49975586 C13.10828857 24.41573486 13.10305176 23.33171387 13.09765625 22.21484375 C13.09443359 21.04501953 13.09121094 19.87519531 13.08789062 18.66992188 C13.07951172 17.43822266 13.07113281 16.20652344 13.0625 14.9375 C13.05798828 13.70193359 13.05347656 12.46636719 13.04882812 11.19335938 C13.03699608 8.12885883 13.02051173 5.06445279 13 2 C9.37 2 5.74 2 2 2 Z " fill="#C5BCBE" transform="translate(246,101)"/>
<path d="M0 0 C0.99 0.495 0.99 0.495 2 1 C1.67 5.95 1.34 10.9 1 16 C-0.5675 16.144375 -2.135 16.28875 -3.75 16.4375 C-6.93207999 16.73058631 -9.91915045 17.14340865 -13 18 C-12.97679687 18.91523437 -12.95359375 19.83046875 -12.9296875 20.7734375 C-12.91164063 21.96195313 -12.89359375 23.15046875 -12.875 24.375 C-12.85179687 25.55835937 -12.82859375 26.74171875 -12.8046875 27.9609375 C-13 31 -13 31 -15 33 C-19.34395071 33.27917421 -23.64350967 33.08542138 -28 33 C-28 37.29 -28 41.58 -28 46 C-38.56 46 -49.12 46 -60 46 C-60 50.95 -60 55.9 -60 61 C-64.62 61 -69.24 61 -74 61 C-73.979375 63.124375 -73.95875 65.24875 -73.9375 67.4375 C-73.91626217 69.62499611 -73.92741054 71.81360547 -74 74 C-75.99616554 75.99616554 -79.81701963 75.40983427 -82.5625 75.5625 C-83.27341797 75.60568359 -83.98433594 75.64886719 -84.71679688 75.69335938 C-86.47761912 75.79971777 -88.2387832 75.90038846 -90 76 C-90 75.34 -90 74.68 -90 74 C-85.38 74 -80.76 74 -76 74 C-76.04125 71.89625 -76.0825 69.7925 -76.125 67.625 C-76.1953125 64.0390625 -76.1953125 64.0390625 -76 61 C-73.31907309 58.31907309 -71.60832637 58.61329743 -67.875 58.375 C-66.77929688 58.30023438 -65.68359375 58.22546875 -64.5546875 58.1484375 C-63.71164063 58.09945312 -62.86859375 58.05046875 -62 58 C-61.90912109 56.60974609 -61.90912109 56.60974609 -61.81640625 55.19140625 C-61.73261719 53.99386719 -61.64882812 52.79632813 -61.5625 51.5625 C-61.48128906 50.36753906 -61.40007812 49.17257813 -61.31640625 47.94140625 C-61 45 -61 45 -60 44 C-57.9291528 43.8415735 -55.85321971 43.74875578 -53.77734375 43.68359375 C-52.51728516 43.64169922 -51.25722656 43.59980469 -49.95898438 43.55664062 C-48.61849264 43.51682404 -47.2779978 43.47711186 -45.9375 43.4375 C-44.59308477 43.39431958 -43.2486834 43.35070544 -41.90429688 43.30664062 C-38.6029766 43.20014642 -35.30157764 43.0981354 -32 43 C-32.02320313 42.32453125 -32.04640625 41.6490625 -32.0703125 40.953125 C-32.08835938 40.06109375 -32.10640625 39.1690625 -32.125 38.25 C-32.14820313 37.36828125 -32.17140625 36.4865625 -32.1953125 35.578125 C-32 33 -32 33 -30 29 C-25.71 29 -21.42 29 -17 29 C-17.04125 26.89625 -17.0825 24.7925 -17.125 22.625 C-17.1953125 19.0390625 -17.1953125 19.0390625 -17 16 C-14.22957891 13.22957891 -12.23466195 13.60203894 -8.375 13.375 C-7.18648438 13.30023438 -5.99796875 13.22546875 -4.7734375 13.1484375 C-3.85820312 13.09945312 -2.94296875 13.05046875 -2 13 C-1.93941406 12.14535156 -1.87882812 11.29070312 -1.81640625 10.41015625 C-1.69072266 8.75306641 -1.69072266 8.75306641 -1.5625 7.0625 C-1.44068359 5.40927734 -1.44068359 5.40927734 -1.31640625 3.72265625 C-1 1 -1 1 0 0 Z " fill="#C6BDC2" transform="translate(217,101)"/>
<path d="M0 0 C1.27875 0.00257812 2.5575 0.00515625 3.875 0.0078125 C5.15375 0.00523438 6.4325 0.00265625 7.75 0 C10.875 0.1328125 10.875 0.1328125 11.875 1.1328125 C12.01893457 5.46812168 11.91712061 9.79438981 11.875 14.1328125 C16.495 14.1328125 21.115 14.1328125 25.875 14.1328125 C27.80895001 18.00071253 28.10789353 19.2828584 28 23.3828125 C27.98195313 24.27484375 27.96390625 25.166875 27.9453125 26.0859375 C27.92210937 26.76140625 27.89890625 27.436875 27.875 28.1328125 C27.215 28.1328125 26.555 28.1328125 25.875 28.1328125 C25.875 34.0728125 25.875 40.0128125 25.875 46.1328125 C25.215 46.1328125 24.555 46.1328125 23.875 46.1328125 C23.875 36.8928125 23.875 27.6528125 23.875 18.1328125 C22.225 18.4628125 20.575 18.7928125 18.875 19.1328125 C18.875 18.4728125 18.875 17.8128125 18.875 17.1328125 C17.575625 17.1534375 16.27625 17.1740625 14.9375 17.1953125 C13.58334367 17.21680704 12.22743917 17.20429449 10.875 17.1328125 C8.99675109 15.25456359 9.48397603 12.09345974 9.3125 9.5703125 C9.22871094 8.37277344 9.14492188 7.17523438 9.05859375 5.94140625 C8.99800781 5.01457031 8.93742187 4.08773437 8.875 3.1328125 C5.575 3.1328125 2.275 3.1328125 -1.125 3.1328125 C-1.11339844 4.13183594 -1.10179687 5.13085938 -1.08984375 6.16015625 C-1.08082031 7.45050781 -1.07179687 8.74085937 -1.0625 10.0703125 C-1.05089844 11.35808594 -1.03929687 12.64585938 -1.02734375 13.97265625 C-1.125 17.1328125 -1.125 17.1328125 -2.125 18.1328125 C-6.46030918 18.27674707 -10.78657731 18.17493311 -15.125 18.1328125 C-15.455 22.4228125 -15.785 26.7128125 -16.125 31.1328125 C-20.415 31.1328125 -24.705 31.1328125 -29.125 31.1328125 C-29.125 30.4728125 -29.125 29.8128125 -29.125 29.1328125 C-25.825 29.1328125 -22.525 29.1328125 -19.125 29.1328125 C-19.14820313 28.21757813 -19.17140625 27.30234375 -19.1953125 26.359375 C-19.21335938 25.17085937 -19.23140625 23.98234375 -19.25 22.7578125 C-19.27320313 21.57445313 -19.29640625 20.39109375 -19.3203125 19.171875 C-19.125 16.1328125 -19.125 16.1328125 -17.125 14.1328125 C-14.0859375 13.9375 -14.0859375 13.9375 -10.5 14.0078125 C-8.71722656 14.03488281 -8.71722656 14.03488281 -6.8984375 14.0625 C-5.98320312 14.08570312 -5.06796875 14.10890625 -4.125 14.1328125 C-4.13660156 13.20597656 -4.14820313 12.27914062 -4.16015625 11.32421875 C-4.16917969 10.12667969 -4.17820313 8.92914063 -4.1875 7.6953125 C-4.19910156 6.50035156 -4.21070313 5.30539063 -4.22265625 4.07421875 C-4.08795671 0.01706849 -4.08333716 0.17354183 0 0 Z " fill="#E3DDDD" transform="translate(249.125,70.8671875)"/>
<path d="M0 0 C0.33 0 0.66 0 1 0 C1.04629419 7.3973076 1.08185426 14.79458407 1.10362434 22.19200706 C1.1140717 25.62675459 1.12824805 29.06140317 1.15087891 32.49609375 C1.17672063 36.44269638 1.18646493 40.38925863 1.1953125 44.3359375 C1.20563507 45.57242035 1.21595764 46.8089032 1.22659302 48.08285522 C1.22681961 49.79440292 1.22681961 49.79440292 1.22705078 51.54052734 C1.231492 52.548685 1.23593323 53.55684265 1.24050903 54.59555054 C1 57 1 57 -1 59 C-4.0390625 59.1953125 -4.0390625 59.1953125 -7.625 59.125 C-9.40777344 59.09792969 -9.40777344 59.09792969 -11.2265625 59.0703125 C-12.59941406 59.03550781 -12.59941406 59.03550781 -14 59 C-13.98839844 59.92683594 -13.97679687 60.85367188 -13.96484375 61.80859375 C-13.95582031 63.00613281 -13.94679688 64.20367187 -13.9375 65.4375 C-13.92589844 66.63246094 -13.91429687 67.82742188 -13.90234375 69.05859375 C-14 72 -14 72 -15 73 C-17.18292774 73.23481693 -19.37203174 73.41363323 -21.5625 73.5625 C-22.76003906 73.64628906 -23.95757812 73.73007812 -25.19140625 73.81640625 C-26.11824219 73.87699219 -27.04507813 73.93757813 -28 74 C-28.09087891 75.26457031 -28.09087891 75.26457031 -28.18359375 76.5546875 C-28.26738281 77.65039062 -28.35117187 78.74609375 -28.4375 79.875 C-28.51871094 80.96554687 -28.59992188 82.05609375 -28.68359375 83.1796875 C-29 86 -29 86 -30 88 C-39.57 88.33 -49.14 88.66 -59 89 C-59 92.96 -59 96.92 -59 101 C-59.33 101 -59.66 101 -60 101 C-60 96.05 -60 91.1 -60 86 C-50.76 86 -41.52 86 -32 86 C-32 81.38 -32 76.76 -32 72 C-24.08 71.505 -24.08 71.505 -16 71 C-15.67 66.38 -15.34 61.76 -15 57 C-11.7 57 -8.4 57 -5 57 C-5 56.34 -5 55.68 -5 55 C-3.68 55.33 -2.36 55.66 -1 56 C-1.00222061 55.31317642 -1.00444122 54.62635284 -1.00672913 53.91871643 C-1.02877895 46.79794838 -1.04390533 39.67718996 -1.05493164 32.55639648 C-1.05997383 29.89558519 -1.06680736 27.23477668 -1.07543945 24.57397461 C-1.08751009 20.75894484 -1.09322929 16.94395156 -1.09765625 13.12890625 C-1.10281754 11.93100967 -1.10797882 10.7331131 -1.11329651 9.49891663 C-1.11337204 8.3978508 -1.11344757 7.29678497 -1.11352539 6.16235352 C-1.115746 5.18750504 -1.11796661 4.21265656 -1.12025452 3.20826721 C-1 1 -1 1 0 0 Z " fill="#D5CFD0" transform="translate(409,207)"/>
<path d="M0 0 C0.66 0 1.32 0 2 0 C2 4.95 2 9.9 2 15 C4.3203125 14.9071875 4.3203125 14.9071875 6.6875 14.8125 C11.58387776 14.61664489 12.35117102 15.21070261 17 18 C17 22.29 17 26.58 17 31 C25.58 31 34.16 31 43 31 C43 26.71 43 22.42 43 18 C45.77042109 15.22957891 47.76533805 15.60203894 51.625 15.375 C52.81351562 15.30023438 54.00203125 15.22546875 55.2265625 15.1484375 C56.59941406 15.07496094 56.59941406 15.07496094 58 15 C58 13.68 58 12.36 58 11 C58.66 11 59.32 11 60 11 C60 13.31 60 15.62 60 18 C55.05 18 50.1 18 45 18 C45 22.95 45 27.9 45 33 C34.77 33 24.54 33 14 33 C14 28.05 14 23.1 14 18 C9.38 18 4.76 18 0 18 C0 12.06 0 6.12 0 0 Z " fill="#C4BDBD" transform="translate(275,99)"/>
<path d="M0 0 C1.39456452 0.00667256 2.78911118 0.01863093 4.18359375 0.03515625 C4.89451172 0.03966797 5.60542969 0.04417969 6.33789062 0.04882812 C8.09899388 0.06064761 9.86005411 0.07858362 11.62109375 0.09765625 C11.62109375 1.41765625 11.62109375 2.73765625 11.62109375 4.09765625 C10.63109375 3.76765625 9.64109375 3.43765625 8.62109375 3.09765625 C5.32109375 3.09765625 2.02109375 3.09765625 -1.37890625 3.09765625 C-1.37890625 12.00765625 -1.37890625 20.91765625 -1.37890625 30.09765625 C1.92109375 30.09765625 5.22109375 30.09765625 8.62109375 30.09765625 C8.95109375 23.82765625 9.28109375 17.55765625 9.62109375 11.09765625 C11.62109375 13.09765625 11.62109375 13.09765625 11.84814453 15.06884766 C11.8376709 15.85437012 11.82719727 16.63989258 11.81640625 17.44921875 C11.80996094 18.3 11.80351562 19.15078125 11.796875 20.02734375 C11.78011719 20.91679687 11.76335937 21.80625 11.74609375 22.72265625 C11.73707031 23.61984375 11.72804688 24.51703125 11.71875 25.44140625 C11.69514345 27.66042211 11.66221685 29.87890702 11.62109375 32.09765625 C9.14185574 32.1245072 6.66290535 32.14442172 4.18359375 32.16015625 C3.47654297 32.16853516 2.76949219 32.17691406 2.04101562 32.18554688 C0.23415816 32.19419213 -1.57278228 32.14985636 -3.37890625 32.09765625 C-5.26209893 30.21446357 -4.5094491 26.97835488 -4.51171875 24.47265625 C-4.51267548 23.81056152 -4.5136322 23.1484668 -4.51461792 22.46630859 C-4.51529951 21.06412664 -4.51344667 19.66194155 -4.50927734 18.25976562 C-4.50392871 16.10669912 -4.50922295 13.95384123 -4.515625 11.80078125 C-4.51496421 10.44140579 -4.51368304 9.08203045 -4.51171875 7.72265625 C-4.51059082 6.47742188 -4.50946289 5.2321875 -4.50830078 3.94921875 C-4.32122078 -0.17360083 -4.21530542 0.12182964 0 0 Z " fill="#C1B5B6" transform="translate(249.37890625,218.90234375)"/>
<path d="M0 0 C5.28 0 10.56 0 16 0 C16 14.19 16 28.38 16 43 C15.01 43 14.02 43 13 43 C13 29.8 13 16.6 13 3 C9.37 2.67 5.74 2.34 2 2 C2 5.63 2 9.26 2 13 C1.34 12.67 0.68 12.34 0 12 C0 8.04 0 4.08 0 0 Z " fill="#D5CDCF" transform="translate(364,101)"/>
<path d="M0 0 C0.66 0 1.32 0 2 0 C2 8.91 2 17.82 2 27 C6.29 27 10.58 27 15 27 C18.57386064 30.57386064 17.69029248 36.14791553 18 41 C23.94 41 29.88 41 36 41 C33 44 33 44 31.00708008 44.34057617 C30.26868896 44.32486572 29.53029785 44.30915527 28.76953125 44.29296875 C27.96708984 44.28330078 27.16464844 44.27363281 26.33789062 44.26367188 C25.50451172 44.23853516 24.67113281 44.21339844 23.8125 44.1875 C22.5450293 44.16719727 22.5450293 44.16719727 21.25195312 44.14648438 C19.16769616 44.11115799 17.08376723 44.05735139 15 44 C15 39.05 15 34.1 15 29 C10.05 29 5.1 29 0 29 C0 19.43 0 9.86 0 0 Z " fill="#C8BDBD" transform="translate(82,192)"/>
<path d="M0 0 C0.66 0 1.32 0 2 0 C2 1.98 2 3.96 2 6 C-7.9 6 -17.8 6 -28 6 C-28 10.95 -28 15.9 -28 21 C-32.62 21 -37.24 21 -42 21 C-41.979375 23.124375 -41.95875 25.24875 -41.9375 27.4375 C-41.91626217 29.62499611 -41.92741054 31.81360547 -42 34 C-43.99616554 35.99616554 -47.81701963 35.40983427 -50.5625 35.5625 C-51.27341797 35.60568359 -51.98433594 35.64886719 -52.71679688 35.69335938 C-54.47761912 35.79971777 -56.2387832 35.90038846 -58 36 C-58 35.34 -58 34.68 -58 34 C-53.38 34 -48.76 34 -44 34 C-44.04125 31.89625 -44.0825 29.7925 -44.125 27.625 C-44.1953125 24.0390625 -44.1953125 24.0390625 -44 21 C-41.31907309 18.31907309 -39.60832637 18.61329743 -35.875 18.375 C-34.77929688 18.30023438 -33.68359375 18.22546875 -32.5546875 18.1484375 C-31.71164063 18.09945312 -30.86859375 18.05046875 -30 18 C-29.90912109 16.60974609 -29.90912109 16.60974609 -29.81640625 15.19140625 C-29.73261719 13.99386719 -29.64882812 12.79632813 -29.5625 11.5625 C-29.48128906 10.36753906 -29.40007812 9.17257813 -29.31640625 7.94140625 C-29 5 -29 5 -28 4 C-25.9291528 3.8415735 -23.85321971 3.74875578 -21.77734375 3.68359375 C-20.51728516 3.64169922 -19.25722656 3.59980469 -17.95898438 3.55664062 C-16.61849264 3.51682404 -15.2779978 3.47711186 -13.9375 3.4375 C-12.59308477 3.39431958 -11.2486834 3.35070544 -9.90429688 3.30664062 C-6.6029766 3.20014642 -3.30157764 3.0981354 0 3 C0 2.01 0 1.02 0 0 Z " fill="#C3B6B8" transform="translate(185,141)"/>
<path d="M0 0 C0 4.95 0 9.9 0 15 C19.14 15 38.28 15 58 15 C58.495 22.92 58.495 22.92 59 31 C58.34 30.67 57.68 30.34 57 30 C56.5859375 27.05859375 56.5859375 27.05859375 56.375 23.4375 C56.26285156 21.64119141 56.26285156 21.64119141 56.1484375 19.80859375 C56.09945312 18.88175781 56.05046875 17.95492188 56 17 C55.28812027 16.98969254 54.57624054 16.97938507 53.8427887 16.96876526 C47.14717174 16.87095102 40.45164482 16.76845996 33.75618076 16.66066074 C30.3136426 16.6054012 26.871096 16.55197653 23.4284668 16.50268555 C19.47435474 16.44599199 15.52039056 16.38142505 11.56640625 16.31640625 C9.70394005 16.29133751 9.70394005 16.29133751 7.80384827 16.26576233 C6.66274094 16.24581711 5.52163361 16.22587189 4.34594727 16.20532227 C2.83037987 16.18200584 2.83037987 16.18200584 1.28419495 16.15821838 C-1 16 -1 16 -2 15 C-2.33 11.04 -2.66 7.08 -3 3 C-11.91 2.67 -20.82 2.34 -30 2 C-30 1.67 -30 1.34 -30 1 C-25.5625336 0.83243072 -21.12502168 0.66609843 -16.6875 0.5 C-15.42486328 0.45230469 -14.16222656 0.40460938 -12.86132812 0.35546875 C-11.65283203 0.31035156 -10.44433594 0.26523437 -9.19921875 0.21875 C-8.08377686 0.17685547 -6.96833496 0.13496094 -5.8190918 0.09179688 C-3.88018086 0.02866095 -1.9399386 0 0 0 Z " fill="#CCC5C6" transform="translate(99,264)"/>
<path d="M0 0 C4.95 0 9.9 0 15 0 C16 1 16 1 16.11352539 3.86743164 C16.10828857 5.11903076 16.10305176 6.37062988 16.09765625 7.66015625 C16.0962413 8.32462265 16.09482635 8.98908905 16.09336853 9.6736908 C16.08775518 11.80333899 16.07520054 13.93288339 16.0625 16.0625 C16.05748671 17.50325369 16.05292351 18.94400903 16.04882812 20.38476562 C16.03863076 23.92324958 16.0190583 27.46150813 16 31 C10.72 31 5.44 31 0 31 C0 20.77 0 10.54 0 0 Z M2 2 C0.70638006 4.58723989 0.87051051 6.48113003 0.8671875 9.375 C0.86589844 10.44234375 0.86460937 11.5096875 0.86328125 12.609375 C0.86714844 13.72828125 0.87101562 14.8471875 0.875 16 C0.87113281 17.11890625 0.86726563 18.2378125 0.86328125 19.390625 C0.86457031 20.45796875 0.86585938 21.5253125 0.8671875 22.625 C0.86831543 23.60726562 0.86944336 24.58953125 0.87060547 25.6015625 C0.84104765 28.01407894 0.84104765 28.01407894 2 30 C3.81242052 30.02687279 5.62495233 30.04633715 7.4375 30.0625 C8.44683594 30.07410156 9.45617187 30.08570313 10.49609375 30.09765625 C12.94021067 30.28612676 12.94021067 30.28612676 14 29 C14.09971786 27.08541718 14.13080589 25.16717683 14.1328125 23.25 C14.13410156 22.0846875 14.13539063 20.919375 14.13671875 19.71875 C14.13285156 18.4915625 14.12898438 17.264375 14.125 16 C14.12886719 14.7728125 14.13273437 13.545625 14.13671875 12.28125 C14.13542969 11.1159375 14.13414062 9.950625 14.1328125 8.75 C14.13168457 7.67234375 14.13055664 6.5946875 14.12939453 5.484375 C14.28092371 3.05780003 14.28092371 3.05780003 13 2 C11.14712498 1.92773498 9.29166122 1.9161878 7.4375 1.9375 C6.42558594 1.94652344 5.41367187 1.95554688 4.37109375 1.96484375 C3.58863281 1.97644531 2.80617188 1.98804688 2 2 Z " fill="#C8C1C0" transform="translate(349,219)"/>
<path d="M0 0 C4.29 0 8.58 0 13 0 C13 4.95 13 9.9 13 15 C23.23 15 33.46 15 44 15 C44 10.05 44 5.1 44 0 C48.62 0 53.24 0 58 0 C58 0.33 58 0.66 58 1 C54.04 1 50.08 1 46 1 C46.20625 1.969375 46.4125 2.93875 46.625 3.9375 C47.10341669 7.1276215 46.777834 9.62402458 46.0234375 12.75390625 C45.83442871 13.55256104 45.64541992 14.35121582 45.45068359 15.17407227 C45.30195801 15.77662842 45.15323242 16.37918457 45 17 C40.94320623 17.02477373 36.88644194 17.04289493 32.82958984 17.05493164 C31.45035027 17.05995118 30.07111598 17.06676819 28.69189453 17.07543945 C26.70607817 17.0876092 24.72022251 17.09271633 22.734375 17.09765625 C21.54038086 17.10289307 20.34638672 17.10812988 19.11621094 17.11352539 C16 17 16 17 12 16 C12 11.05 12 6.1 12 1 C8.04 1 4.08 1 0 1 C0 0.67 0 0.34 0 0 Z " fill="#ECE5E5" transform="translate(276,117)"/>
<path d="M0 0 C0.66 0 1.32 0 2 0 C2 19.14 2 38.28 2 58 C-1.96 57.505 -1.96 57.505 -6 57 C-2.125 55 -2.125 55 -1 55 C-0.67 36.85 -0.34 18.7 0 0 Z " fill="#C7BDBF" transform="translate(126,178)"/>
<path d="M0 0 C0.33 0 0.66 0 1 0 C1.06944095 7.39727248 1.12278091 14.79447494 1.15543652 22.19200706 C1.17110785 25.62681954 1.19237214 29.06140941 1.22631836 32.49609375 C1.2650808 36.44268144 1.27969712 40.38917828 1.29296875 44.3359375 C1.30845261 45.57242035 1.32393646 46.8089032 1.33988953 48.08285522 C1.34011612 49.22388702 1.34034271 50.36491882 1.34057617 51.54052734 C1.34723801 52.548685 1.35389984 53.55684265 1.36076355 54.59555054 C1.24171158 55.38901886 1.12265961 56.18248718 1 57 C0.01 57.66 -0.98 58.32 -2 59 C-2.99 57.68 -3.98 56.36 -5 55 C-3.68 55.33 -2.36 55.66 -1 56 C-1.00222061 55.31317642 -1.00444122 54.62635284 -1.00672913 53.91871643 C-1.02877895 46.79794838 -1.04390533 39.67718996 -1.05493164 32.55639648 C-1.05997383 29.89558519 -1.06680736 27.23477668 -1.07543945 24.57397461 C-1.08751009 20.75894484 -1.09322929 16.94395156 -1.09765625 13.12890625 C-1.10281754 11.93100967 -1.10797882 10.7331131 -1.11329651 9.49891663 C-1.11337204 8.3978508 -1.11344757 7.29678497 -1.11352539 6.16235352 C-1.115746 5.18750504 -1.11796661 4.21265656 -1.12025452 3.20826721 C-1 1 -1 1 0 0 Z " fill="#DCDADA" transform="translate(409,207)"/>
<path d="M0 0 C1.12535156 0.00580078 1.12535156 0.00580078 2.2734375 0.01171875 C3.02367187 0.00785156 3.77390625 0.00398437 4.546875 0 C10.14682697 0.01010822 10.14682697 0.01010822 11.2734375 1.13671875 C11.68958893 5.51980901 11.79114862 9.92555476 11.9609375 14.32421875 C12.02087891 15.55720703 12.08082031 16.79019531 12.14257812 18.06054688 C12.18962891 19.25486328 12.23667969 20.44917969 12.28515625 21.6796875 C12.33115967 22.7730542 12.37716309 23.8664209 12.42456055 24.99291992 C12.2734375 28.13671875 12.2734375 28.13671875 10.2734375 34.13671875 C4.6634375 34.13671875 -0.9465625 34.13671875 -6.7265625 34.13671875 C-7.89747288 30.6239876 -7.76283235 28.01788825 -7.640625 24.31640625 C-7.61938568 23.65714142 -7.59814636 22.99787659 -7.57626343 22.31863403 C-7.53008346 20.92831421 -7.48116202 19.53808309 -7.4296875 18.14794922 C-7.35160502 16.01288146 -7.28457791 13.87766439 -7.21875 11.7421875 C-7.17253498 10.39190433 -7.12568209 9.04164282 -7.078125 7.69140625 C-7.03510254 6.45890137 -6.99208008 5.22639648 -6.94775391 3.95654297 C-6.55891532 -1.00050527 -4.48582198 0.00809715 0 0 Z M-5.7265625 1.13671875 C-5.7265625 11.36671875 -5.7265625 21.59671875 -5.7265625 32.13671875 C-0.4465625 32.13671875 4.8334375 32.13671875 10.2734375 32.13671875 C10.2963507 27.88250161 10.31627639 23.62849718 10.32836914 19.37426758 C10.33340851 17.92601802 10.34024003 16.47777358 10.34887695 15.02954102 C10.36095997 12.95197287 10.36666961 10.87447178 10.37109375 8.796875 C10.37633057 7.54527588 10.38156738 6.29367676 10.38696289 5.00415039 C10.60230785 2.23939581 10.60230785 2.23939581 9.2734375 1.13671875 C4.3234375 1.13671875 -0.6265625 1.13671875 -5.7265625 1.13671875 Z " fill="#E9E3E3" transform="translate(354.7265625,217.86328125)"/>
<path d="M0 0 C1.37478516 0.01740234 1.37478516 0.01740234 2.77734375 0.03515625 C3.69644531 0.04417969 4.61554688 0.05320312 5.5625 0.0625 C6.27277344 0.07410156 6.98304688 0.08570312 7.71484375 0.09765625 C7.71484375 0.42765625 7.71484375 0.75765625 7.71484375 1.09765625 C4.74484375 1.09765625 1.77484375 1.09765625 -1.28515625 1.09765625 C-1.28515625 6.04765625 -1.28515625 10.99765625 -1.28515625 16.09765625 C-5.90515625 16.42765625 -10.52515625 16.75765625 -15.28515625 17.09765625 C-15.61515625 21.71765625 -15.94515625 26.33765625 -16.28515625 31.09765625 C-20.24515625 31.09765625 -24.20515625 31.09765625 -28.28515625 31.09765625 C-28.28515625 30.43765625 -28.28515625 29.77765625 -28.28515625 29.09765625 C-24.98515625 29.09765625 -21.68515625 29.09765625 -18.28515625 29.09765625 C-18.30835938 28.18242188 -18.3315625 27.2671875 -18.35546875 26.32421875 C-18.37351563 25.13570312 -18.3915625 23.9471875 -18.41015625 22.72265625 C-18.43335938 21.53929688 -18.4565625 20.3559375 -18.48046875 19.13671875 C-18.28515625 16.09765625 -18.28515625 16.09765625 -16.28515625 14.09765625 C-13.24609375 13.90234375 -13.24609375 13.90234375 -9.66015625 13.97265625 C-7.87738281 13.99972656 -7.87738281 13.99972656 -6.05859375 14.02734375 C-5.14335937 14.05054687 -4.228125 14.07375 -3.28515625 14.09765625 C-3.29675781 13.17082031 -3.30835938 12.24398437 -3.3203125 11.2890625 C-3.32933594 10.09152344 -3.33835938 8.89398438 -3.34765625 7.66015625 C-3.35925781 6.46519531 -3.37085938 5.27023438 -3.3828125 4.0390625 C-3.25332939 0.13903117 -3.25332939 0.13903117 0 0 Z " fill="#B6AFB0" transform="translate(248.28515625,70.90234375)"/>
<path d="M0 0 C1.65 0 3.3 0 5 0 C4.67 0.66 4.34 1.32 4 2 C3.01 2 2.02 2 1 2 C1.02320313 2.91523437 1.04640625 3.83046875 1.0703125 4.7734375 C1.09738281 6.55621094 1.09738281 6.55621094 1.125 8.375 C1.14820313 9.55835937 1.17140625 10.74171875 1.1953125 11.9609375 C1 15 1 15 -1 17 C-5.34395071 17.27917421 -9.64350967 17.08542138 -14 17 C-14 21.29 -14 25.58 -14 30 C-14.66 30 -15.32 30 -16 30 C-16 28.02 -16 26.04 -16 24 C-16.66 24 -17.32 24 -18 24 C-18.17700355 19.39790775 -18.10814567 17.21629134 -16 13 C-10.72 13.33 -5.44 13.66 0 14 C0 9.38 0 4.76 0 0 Z " fill="#DACECF" transform="translate(203,117)"/>
<path d="M0 0 C1.93166016 0.01740234 1.93166016 0.01740234 3.90234375 0.03515625 C5.19269531 0.04417969 6.48304688 0.05320313 7.8125 0.0625 C8.81152344 0.07410156 9.81054688 0.08570313 10.83984375 0.09765625 C10.83984375 0.42765625 10.83984375 0.75765625 10.83984375 1.09765625 C6.54984375 1.09765625 2.25984375 1.09765625 -2.16015625 1.09765625 C-2.14855469 2.09667969 -2.13695312 3.09570312 -2.125 4.125 C-2.11597656 5.41535156 -2.10695312 6.70570313 -2.09765625 8.03515625 C-2.08605469 9.32292969 -2.07445312 10.61070312 -2.0625 11.9375 C-2.16015625 15.09765625 -2.16015625 15.09765625 -3.16015625 16.09765625 C-5.37870889 16.18549167 -7.60004121 16.20460234 -9.8203125 16.1953125 C-10.8170121 16.19319008 -10.8170121 16.19319008 -11.83384705 16.19102478 C-13.96349524 16.18541143 -16.09303964 16.17285679 -18.22265625 16.16015625 C-19.66340994 16.15514296 -21.10416528 16.15057976 -22.54492188 16.14648438 C-26.08336727 16.1354377 -29.62175164 16.11816417 -33.16015625 16.09765625 C-33.49015625 15.43765625 -33.82015625 14.77765625 -34.16015625 14.09765625 C-24.26015625 14.09765625 -14.36015625 14.09765625 -4.16015625 14.09765625 C-4.16015625 9.80765625 -4.16015625 5.51765625 -4.16015625 1.09765625 C-3.16015625 0.09765625 -3.16015625 0.09765625 0 0 Z " fill="#DCD3D4" transform="translate(250.16015625,131.90234375)"/>
<path d="M0 0 C0.66 0 1.32 0 2 0 C2 2.31 2 4.62 2 7 C-2.95 7 -7.9 7 -13 7 C-13 11.62 -13 16.24 -13 21 C-22.9 21 -32.8 21 -43 21 C-42.505 19.515 -42.505 19.515 -42 18 C-41.67 18.66 -41.34 19.32 -41 20 C-32.42 20 -23.84 20 -15 20 C-15 15.71 -15 11.42 -15 7 C-12.22957891 4.22957891 -10.23466195 4.60203894 -6.375 4.375 C-5.18648438 4.30023438 -3.99796875 4.22546875 -2.7734375 4.1484375 C-1.40058594 4.07496094 -1.40058594 4.07496094 0 4 C0 2.68 0 1.36 0 0 Z " fill="#B4ABAC" transform="translate(333,110)"/>
<path d="M0 0 C1.79244141 0.01740234 1.79244141 0.01740234 3.62109375 0.03515625 C5.41740234 0.04869141 5.41740234 0.04869141 7.25 0.0625 C8.17683594 0.07410156 9.10367187 0.08570312 10.05859375 0.09765625 C10.05859375 0.42765625 10.05859375 0.75765625 10.05859375 1.09765625 C4.11859375 1.59265625 4.11859375 1.59265625 -1.94140625 2.09765625 C-1.94140625 5.72765625 -1.94140625 9.35765625 -1.94140625 13.09765625 C-0.44287109 13.17113281 -0.44287109 13.17113281 1.0859375 13.24609375 C3.02146484 13.35824219 3.02146484 13.35824219 4.99609375 13.47265625 C6.28386719 13.54226562 7.57164062 13.611875 8.8984375 13.68359375 C10.46271484 13.88855469 10.46271484 13.88855469 12.05859375 14.09765625 C14.18939066 18.35925007 13.10361692 24.50529327 13.05859375 29.09765625 C17.34859375 29.09765625 21.63859375 29.09765625 26.05859375 29.09765625 C26.05859375 29.75765625 26.05859375 30.41765625 26.05859375 31.09765625 C21.10859375 31.09765625 16.15859375 31.09765625 11.05859375 31.09765625 C11.05859375 25.81765625 11.05859375 20.53765625 11.05859375 15.09765625 C6.10859375 15.09765625 1.15859375 15.09765625 -3.94140625 15.09765625 C-4.0390625 4.2578125 -4.0390625 4.2578125 -3.94140625 1.09765625 C-2.94140625 0.09765625 -2.94140625 0.09765625 0 0 Z " fill="#BDB5B5" transform="translate(352.94140625,115.90234375)"/>
<path d="M0 0 C0.99 0.33 1.98 0.66 3 1 C3 10.57 3 20.14 3 30 C-1.29 30 -5.58 30 -10 30 C-10 29.01 -10 28.02 -10 27 C-6.7 27 -3.4 27 0 27 C0 18.09 0 9.18 0 0 Z " fill="#C5BBBE" transform="translate(258,102)"/>
<path d="M0 0 C0.66 0 1.32 0 2 0 C4.24967291 3.37450937 4.24707022 4.52508743 4.23046875 8.47265625 C4.22853516 9.53677734 4.22660156 10.60089844 4.22460938 11.69726562 C4.20624023 13.36305664 4.20624023 13.36305664 4.1875 15.0625 C4.18685547 16.17689453 4.18621094 17.29128906 4.18554688 18.43945312 C4.14035676 26.71928648 4.14035676 26.71928648 3 29 C-5.415 29.495 -5.415 29.495 -14 30 C-13.505 28.515 -13.505 28.515 -13 27 C-8.05 27.33 -3.1 27.66 2 28 C1.85956931 24.87467015 1.71290594 21.74985182 1.5625 18.625 C1.52318359 17.73554688 1.48386719 16.84609375 1.44335938 15.9296875 C1.38051758 14.65351563 1.38051758 14.65351563 1.31640625 13.3515625 C1.27974854 12.56604004 1.24309082 11.78051758 1.20532227 10.97119141 C1.109109 8.92476504 1.109109 8.92476504 0 7 C-0.04022391 4.6670134 -0.04320247 2.33293334 0 0 Z " fill="#F2EEED" transform="translate(259,223)"/>
<path d="M0 0 C2 2 2 2 2.1953125 4.3828125 C2.13020833 6.921875 2.06510417 9.4609375 2 12 C6.95 12 11.9 12 17 12 C17 16.62 17 21.24 17 26 C16.01 26 15.02 26 14 26 C14 22.37 14 18.74 14 15 C13.15695313 14.95101562 12.31390625 14.90203125 11.4453125 14.8515625 C9.80175781 14.73941406 9.80175781 14.73941406 8.125 14.625 C7.03445312 14.55539063 5.94390625 14.48578125 4.8203125 14.4140625 C2 14 2 14 0 12 C-0.1953125 9.1796875 -0.1953125 9.1796875 -0.125 5.875 C-0.10695312 4.77929688 -0.08890625 3.68359375 -0.0703125 2.5546875 C-0.04710937 1.71164063 -0.02390625 0.86859375 0 0 Z " fill="#D0C0C5" transform="translate(52,237)"/>
<path d="M0 0 C0.33 0 0.66 0 1 0 C1 19.14 1 38.28 1 58 C6.94 57.505 6.94 57.505 13 57 C13.99 57 14.98 57 16 57 C16 57.99 16 58.98 16 60 C14.2709226 60.02725341 12.54171824 60.04650987 10.8125 60.0625 C9.84957031 60.07410156 8.88664062 60.08570313 7.89453125 60.09765625 C5 60 5 60 0 59 C0 39.53 0 20.06 0 0 Z " fill="#F5F1F0" transform="translate(393,148)"/>
<path d="M0 0 C2.31243792 -0.02685412 4.6249627 -0.04632841 6.9375 -0.0625 C8.22527344 -0.07410156 9.51304687 -0.08570312 10.83984375 -0.09765625 C14 0 14 0 15 1 C15.25744164 2.9951727 15.51199834 4.99112677 15.71875 6.9921875 C15.9662595 9.20138785 15.9662595 9.20138785 17 12 C16.34 12 15.68 12 15 12 C15 17.94 15 23.88 15 30 C14.34 30 13.68 30 13 30 C13 20.76 13 11.52 13 2 C11.35 2.33 9.7 2.66 8 3 C8 2.34 8 1.68 8 1 C5.36 1 2.72 1 0 1 C0 0.67 0 0.34 0 0 Z " fill="#ECE7E8" transform="translate(260,87)"/>
<path d="M0 0 C1.93166016 0.01740234 1.93166016 0.01740234 3.90234375 0.03515625 C5.19269531 0.04417969 6.48304688 0.05320312 7.8125 0.0625 C8.81152344 0.07410156 9.81054688 0.08570312 10.83984375 0.09765625 C10.83984375 0.42765625 10.83984375 0.75765625 10.83984375 1.09765625 C6.54984375 1.09765625 2.25984375 1.09765625 -2.16015625 1.09765625 C-2.14855469 2.09667969 -2.13695312 3.09570312 -2.125 4.125 C-2.11597656 5.41535156 -2.10695313 6.70570312 -2.09765625 8.03515625 C-2.08605469 9.32292969 -2.07445312 10.61070313 -2.0625 11.9375 C-2.16015625 15.09765625 -2.16015625 15.09765625 -3.16015625 16.09765625 C-7.82860853 16.24192239 -12.48881578 16.1397404 -17.16015625 16.09765625 C-17.16015625 20.71765625 -17.16015625 25.33765625 -17.16015625 30.09765625 C-17.49015625 30.09765625 -17.82015625 30.09765625 -18.16015625 30.09765625 C-18.16015625 27.78765625 -18.16015625 25.47765625 -18.16015625 23.09765625 C-18.82015625 22.76765625 -19.48015625 22.43765625 -20.16015625 22.09765625 C-19.83015625 19.45765625 -19.50015625 16.81765625 -19.16015625 14.09765625 C-14.21015625 14.42765625 -9.26015625 14.75765625 -4.16015625 15.09765625 C-4.18078125 12.80828125 -4.20140625 10.51890625 -4.22265625 8.16015625 C-4.24386493 5.80599293 -4.23287366 3.4507918 -4.16015625 1.09765625 C-3.16015625 0.09765625 -3.16015625 0.09765625 0 0 Z " fill="#DED5D5" transform="translate(353.16015625,86.90234375)"/>
<path d="M0 0 C1.39456452 0.00667256 2.78911118 0.01863093 4.18359375 0.03515625 C4.89451172 0.03966797 5.60542969 0.04417969 6.33789062 0.04882812 C8.09899388 0.06064761 9.86005411 0.07858362 11.62109375 0.09765625 C11.62109375 1.41765625 11.62109375 2.73765625 11.62109375 4.09765625 C10.63109375 3.76765625 9.64109375 3.43765625 8.62109375 3.09765625 C5.32109375 3.09765625 2.02109375 3.09765625 -1.37890625 3.09765625 C-2.03890625 12.33765625 -2.69890625 21.57765625 -3.37890625 31.09765625 C-3.70890625 31.09765625 -4.03890625 31.09765625 -4.37890625 31.09765625 C-4.40356247 26.84351002 -4.42174524 22.58940127 -4.43383789 18.33520508 C-4.43887726 16.88695552 -4.44570878 15.43871108 -4.4543457 13.99047852 C-4.46642872 11.91291037 -4.47213836 9.83540928 -4.4765625 7.7578125 C-4.48179932 6.50621338 -4.48703613 5.25461426 -4.49243164 3.96508789 C-4.32865533 -0.17158461 -4.22444187 0.1220937 0 0 Z " fill="#E1DAD9" transform="translate(249.37890625,218.90234375)"/>
<path d="M0 0 C-3.96 0 -7.92 0 -12 0 C-11.98839844 0.92683594 -11.97679687 1.85367187 -11.96484375 2.80859375 C-11.95582031 4.00613281 -11.94679688 5.20367187 -11.9375 6.4375 C-11.92589844 7.63246094 -11.91429687 8.82742188 -11.90234375 10.05859375 C-12 13 -12 13 -13 14 C-15.18292774 14.23481693 -17.37203174 14.41363323 -19.5625 14.5625 C-21.35880859 14.68818359 -21.35880859 14.68818359 -23.19140625 14.81640625 C-24.11824219 14.87699219 -25.04507812 14.93757813 -26 15 C-26.33 18.3 -26.66 21.6 -27 25 C-27.33 25 -27.66 25 -28 25 C-28 21.04 -28 17.08 -28 13 C-23.38 12.67 -18.76 12.34 -14 12 C-13.67 7.38 -13.34 2.76 -13 -2 C-3.375 -3.375 -3.375 -3.375 0 0 Z " fill="#C2BFC0" transform="translate(407,266)"/>
<path d="M0 0 C0.99322266 -0.01224609 1.98644531 -0.02449219 3.00976562 -0.03710938 C4.44545898 -0.04000977 4.44545898 -0.04000977 5.91015625 -0.04296875 C6.77906494 -0.04707764 7.64797363 -0.05118652 8.54321289 -0.05541992 C11.1023405 0.20422441 12.73203988 0.89808038 14.9375 2.1875 C12.11925808 3.59662096 9.76498718 3.29933553 6.6171875 3.28515625 C5.36035156 3.28193359 4.10351562 3.27871094 2.80859375 3.27539062 C1.48988281 3.26701172 0.17117187 3.25863281 -1.1875 3.25 C-2.52734211 3.24498489 -3.867186 3.24042201 -5.20703125 3.23632812 C-8.49223206 3.22451086 -11.77734397 3.20803617 -15.0625 3.1875 C-15.3925 2.5275 -15.7225 1.8675 -16.0625 1.1875 C-10.68026305 -0.02243218 -5.49402544 0.00357917 0 0 Z " fill="#E6DDDF" transform="translate(83.0625,261.8125)"/>
<path d="M0 0 C5.28 0 10.56 0 16 0 C16 6.6 16 13.2 16 20 C14 18 14 18 13.8046875 14.3046875 C13.817991 12.82799892 13.84185165 11.35137642 13.875 9.875 C13.88402344 9.12089844 13.89304687 8.36679688 13.90234375 7.58984375 C13.9259313 5.72642746 13.96180281 3.86317407 14 2 C9.71 2 5.42 2 1 2 C0.67 1.34 0.34 0.68 0 0 Z " fill="#D8CACD" transform="translate(38,219)"/>
<path d="M0 0 C0.33 0 0.66 0 1 0 C1 4.29 1 8.58 1 13 C5.62 13 10.24 13 15 13 C17.35333796 17.70667591 17.17102038 19.8693886 17 25 C16.34 24.67 15.68 24.34 15 24 C14.40644386 21.35139573 14.25790731 18.70802678 14 16 C7.07 15.505 7.07 15.505 0 15 C0 10.05 0 5.1 0 0 Z " fill="#B4ABAC" transform="translate(260,72)"/>
<path d="M0 0 C5.28 0 10.56 0 16 0 C16 1.65 16 3.3 16 5 C15.34 5 14.68 5 14 5 C13.67 4.34 13.34 3.68 13 3 C9.34850439 2.39616453 5.69649725 2.25493084 2 2 C2 5.63 2 9.26 2 13 C1.34 12.67 0.68 12.34 0 12 C0 8.04 0 4.08 0 0 Z " fill="#CBBCBE" transform="translate(364,101)"/>
<path d="M0 0 C0.33 0 0.66 0 1 0 C1 1.65 1 3.3 1 5 C-9.56 5 -20.12 5 -31 5 C-31 4.67 -31 4.34 -31 4 C-29.73542969 3.95101562 -28.47085938 3.90203125 -27.16796875 3.8515625 C-25.50779053 3.7765262 -23.84763536 3.70097873 -22.1875 3.625 C-21.35412109 3.5940625 -20.52074219 3.563125 -19.66210938 3.53125 C-18.85966797 3.49257812 -18.05722656 3.45390625 -17.23046875 3.4140625 C-16.12288208 3.36693115 -16.12288208 3.36693115 -14.99291992 3.31884766 C-12.68650412 3.09165386 -12.68650412 3.09165386 -10 1 C-7.3125 0.875 -7.3125 0.875 -5 1 C-4.67 1.66 -4.34 2.32 -4 3 C-1.97536745 3.65213292 -1.97536745 3.65213292 0 4 C0 2.68 0 1.36 0 0 Z " fill="#EDE3E4" transform="translate(128,232)"/>
<path d="M0 0 C1.69141656 0.08963062 3.37959602 0.24577676 5.0625 0.4375 C6.44115234 0.59025391 6.44115234 0.59025391 7.84765625 0.74609375 C8.55792969 0.82988281 9.26820313 0.91367187 10 1 C10 1.33 10 1.66 10 2 C6.7 2 3.4 2 0 2 C0.01160156 2.99902344 0.02320313 3.99804688 0.03515625 5.02734375 C0.04417969 6.31769531 0.05320312 7.60804688 0.0625 8.9375 C0.07410156 10.22527344 0.08570313 11.51304687 0.09765625 12.83984375 C0 16 0 16 -1 17 C-2.99958364 17.04080783 -5.00045254 17.04254356 -7 17 C-6.67 16.34 -6.34 15.68 -6 15 C-5.01 15 -4.02 15 -3 15 C-2.86722656 14.00097656 -2.73445313 13.00195312 -2.59765625 11.97265625 C-2.42105469 10.68230469 -2.24445313 9.39195312 -2.0625 8.0625 C-1.88847656 6.77472656 -1.71445312 5.48695313 -1.53515625 4.16015625 C-1 1 -1 1 0 0 Z " fill="#EBE6E7" transform="translate(394,262)"/>
<path d="M0 0 C0.66 0 1.32 0 2 0 C2 4.95 2 9.9 2 15 C5.80859375 14.95117188 5.80859375 14.95117188 9.6171875 14.90234375 C12 15 12 15 14 16 C14 16.66 14 17.32 14 18 C9.38 18 4.76 18 0 18 C0 12.06 0 6.12 0 0 Z " fill="#AAA3A4" transform="translate(275,99)"/>
<path d="M0 0 C0 4.95 0 9.9 0 15 C-0.33 15 -0.66 15 -1 15 C-1.33 11.04 -1.66 7.08 -2 3 C-10.91 2.67 -19.82 2.34 -29 2 C-29 1.67 -29 1.34 -29 1 C-24.54168888 0.83273548 -20.08334759 0.66628917 -15.625 0.5 C-14.35398437 0.45230469 -13.08296875 0.40460938 -11.7734375 0.35546875 C-9.95585938 0.28779297 -9.95585938 0.28779297 -8.1015625 0.21875 C-6.42054443 0.1559082 -6.42054443 0.1559082 -4.70556641 0.09179688 C-3.13764805 0.03859914 -1.56882057 0 0 0 Z " fill="#BCB8B9" transform="translate(98,264)"/>
<path d="M0 0 C4.95 0 9.9 0 15 0 C15 0.33 15 0.66 15 1 C10.71 1 6.42 1 2 1 C2 5.29 2 9.58 2 14 C1.34 14 0.68 14 0 14 C0 12.02 0 10.04 0 8 C-0.66 7.67 -1.32 7.34 -2 7 C-1.34 7 -0.68 7 0 7 C0 4.69 0 2.38 0 0 Z " fill="#E7E0E2" transform="translate(187,133)"/>
<path d="M0 0 C1.25425781 0.00902344 2.50851563 0.01804688 3.80078125 0.02734375 C4.75339844 0.03894531 5.70601562 0.05054688 6.6875 0.0625 C5.62890625 1.54296875 5.62890625 1.54296875 3.6875 3.0625 C0.40234375 3.42578125 0.40234375 3.42578125 -3.375 3.375 C-4.62410156 3.37113281 -5.87320313 3.36726562 -7.16015625 3.36328125 C-10.3125 3.0625 -10.3125 3.0625 -12.3125 1.0625 C-8.15623632 0.05323521 -4.26884906 -0.03989579 0 0 Z " fill="#A19797" transform="translate(111.3125,232.9375)"/>
<path d="M0 0 C0.33 0 0.66 0 1 0 C1 4.29 1 8.58 1 13 C-3.62 13 -8.24 13 -13 13 C-13 12.67 -13 12.34 -13 12 C-9.37 12 -5.74 12 -2 12 C-1.855625 10.576875 -1.71125 9.15375 -1.5625 7.6875 C-1.27859126 4.88897096 -0.8968714 2.6906142 0 0 Z " fill="#C7BCBD" transform="translate(202,118)"/>
<path d="M0 0 C0.33 0 0.66 0 1 0 C1 4.62 1 9.24 1 14 C-2.96 14 -6.92 14 -11 14 C-11 13.34 -11 12.68 -11 12 C-7.7 12 -4.4 12 -1 12 C-0.67 8.04 -0.34 4.08 0 0 Z " fill="#CAC2C3" transform="translate(231,88)"/>
<path d="M0 0 C0.33 0 0.66 0 1 0 C1 4.29 1 8.58 1 13 C5.54101562 12.609375 5.54101562 12.609375 10.08203125 12.21875 C13 12 13 12 16 12 C16 12.99 16 13.98 16 15 C14.2709226 15.02725341 12.54171824 15.04650987 10.8125 15.0625 C9.36810547 15.07990234 9.36810547 15.07990234 7.89453125 15.09765625 C5 15 5 15 0 14 C0 9.38 0 4.76 0 0 Z " fill="#EFE8EB" transform="translate(393,193)"/>
<path d="M0 0 C0.33 0.99 0.66 1.98 1 3 C-3.29 3 -7.58 3 -12 3 C-12.66 4.32 -13.32 5.64 -14 7 C-14 5.68 -14 4.36 -14 3 C-14.66 2.67 -15.32 2.34 -16 2 C-13.0384304 0.5192152 -10.16493705 0.64685963 -6.875 0.4375 C-5.59367188 0.35371094 -4.31234375 0.26992187 -2.9921875 0.18359375 C-2.00476563 0.12300781 -1.01734375 0.06242188 0 0 Z " fill="#EAE4E6" transform="translate(142,175)"/>
<path d="M0 0 C0.33 0 0.66 0 1 0 C1 1.65 1 3.3 1 5 C1.66 5.33 2.32 5.66 3 6 C3.73075648 8.3140622 4.40138258 10.64828869 5 13 C3.35 13.33 1.7 13.66 0 14 C0 9.38 0 4.76 0 0 Z " fill="#F9F3F4" transform="translate(69,249)"/>
<path d="M0 0 C4.95 0 9.9 0 15 0 C15 1.32 15 2.64 15 4 C14.01 3.67 13.02 3.34 12 3 C10.31454276 2.90712229 8.625507 2.87002796 6.9375 2.875 C6.05964844 2.87242187 5.18179688 2.86984375 4.27734375 2.8671875 C1.96801734 2.85166576 1.96801734 2.85166576 0 4 C0 2.68 0 1.36 0 0 Z " fill="#C8C0BF" transform="translate(246,219)"/>
<path d="M0 0 C0.66 0 1.32 0 2 0 C2.77528479 3.42573937 3.11918778 6.57239245 3.09765625 10.08203125 C3.09282227 11.47905273 3.09282227 11.47905273 3.08789062 12.90429688 C3.07951172 13.86400391 3.07113281 14.82371094 3.0625 15.8125 C3.05798828 16.79154297 3.05347656 17.77058594 3.04882812 18.77929688 C3.03708684 21.18626111 3.02066419 23.59309857 3 26 C2.67 26 2.34 26 2 26 C1.93941406 24.79601562 1.87882812 23.59203125 1.81640625 22.3515625 C1.73200268 20.77602923 1.64735459 19.20050904 1.5625 17.625 C1.52318359 16.8309375 1.48386719 16.036875 1.44335938 15.21875 C1.31106596 10.97398779 1.31106596 10.97398779 0 7 C-0.04022391 4.6670134 -0.04320247 2.33293334 0 0 Z " fill="#E6DFE0" transform="translate(259,223)"/>
<path d="M0 0 C0.33 0 0.66 0 1 0 C1.22786458 1.98567708 1.45572917 3.97135417 1.68359375 5.95703125 C1.97170735 8.19396393 1.97170735 8.19396393 3 11 C2.34 11 1.68 11 1 11 C1 16.94 1 22.88 1 29 C0.67 29 0.34 29 0 29 C0 19.43 0 9.86 0 0 Z " fill="#D8D2D3" transform="translate(274,88)"/>
<path d="M0 0 C9.57 0 19.14 0 29 0 C28.67 0.99 28.34 1.98 28 3 C27.34 2.67 26.68 2.34 26 2 C24.04225931 1.84621148 22.07982648 1.75028537 20.1171875 1.68359375 C18.95058594 1.64169922 17.78398437 1.59980469 16.58203125 1.55664062 C15.35871094 1.51732422 14.13539063 1.47800781 12.875 1.4375 C11.64394531 1.39431641 10.41289062 1.35113281 9.14453125 1.30664062 C6.09647147 1.20031296 3.0483281 1.09828219 0 1 C0 0.67 0 0.34 0 0 Z " fill="#CDC3C3" transform="translate(159,294)"/>
<path d="M0 0 C0.33 0 0.66 0 1 0 C1.33 5.94 1.66 11.88 2 18 C-0.64 17.67 -3.28 17.34 -6 17 C-2.125 15 -2.125 15 -1 15 C-0.67 10.05 -0.34 5.1 0 0 Z " fill="#BAB1B3" transform="translate(126,218)"/>
<path d="M0 0 C0.99 0.33 1.98 0.66 3 1 C3 5.29 3 9.58 3 14 C2.01 14.495 2.01 14.495 1 15 C0.15318867 9.91913204 -0.09038099 5.15171623 0 0 Z " fill="#B3AEB0" transform="translate(258,102)"/>
<path d="M0 0 C0.66 0 1.32 0 2 0 C1.67 0.99 1.34 1.98 1 3 C0.77548542 5.22574335 0.59217122 7.45581519 0.4375 9.6875 C0.35371094 10.86699219 0.26992187 12.04648438 0.18359375 13.26171875 C0.12300781 14.16535156 0.06242188 15.06898438 0 16 C-2.64 16 -5.28 16 -8 16 C-8 15.67 -8 15.34 -8 15 C-5.69 15 -3.38 15 -1 15 C-1.01160156 14.00097656 -1.02320313 13.00195312 -1.03515625 11.97265625 C-1.04417969 10.68230469 -1.05320313 9.39195312 -1.0625 8.0625 C-1.07410156 6.77472656 -1.08570313 5.48695313 -1.09765625 4.16015625 C-1 1 -1 1 0 0 Z " fill="#A79EA0" transform="translate(246,130)"/>
<path d="M0 0 C2.31 0 4.62 0 7 0 C7 2.64 7 5.28 7 8 C6.34 7.67 5.68 7.34 5 7 C4.375 3.9375 4.375 3.9375 4 1 C2.68 0.67 1.36 0.34 0 0 Z " fill="#F6F1F1" transform="translate(281,118)"/>
<path d="M0 0 C0.33 0 0.66 0 1 0 C1.33 3.96 1.66 7.92 2 12 C1.01 12.66 0.02 13.32 -1 14 C-1.99 12.68 -2.98 11.36 -4 10 C-2.68 10.33 -1.36 10.66 0 11 C0 7.37 0 3.74 0 0 Z " fill="#E4DBE2" transform="translate(408,252)"/>
<path d="M0 0 C0.33 0 0.66 0 1 0 C1.13277344 0.84304687 1.26554687 1.68609375 1.40234375 2.5546875 C1.57894531 3.65039062 1.75554687 4.74609375 1.9375 5.875 C2.19853516 7.51082031 2.19853516 7.51082031 2.46484375 9.1796875 C2.85551159 11.93821546 2.85551159 11.93821546 4 14 C2.68 14 1.36 14 0 14 C0 9.38 0 4.76 0 0 Z " fill="#D0C3C5" transform="translate(97,222)"/>
<path d="M0 0 C0.66 0.33 1.32 0.66 2 1 C1.67 3.31 1.34 5.62 1 8 C1.99 8.33 2.98 8.66 4 9 C4 9.66 4 10.32 4 11 C2.35 11 0.7 11 -1 11 C-0.67 7.37 -0.34 3.74 0 0 Z " fill="#F5F0F2" transform="translate(188,297)"/>
<path d="M0 0 C0.78375 0.04125 1.5675 0.0825 2.375 0.125 C2.045 0.785 1.715 1.445 1.375 2.125 C0.385 2.455 -0.605 2.785 -1.625 3.125 C-2.85020264 6.13347418 -2.85020264 6.13347418 -3.625 9.125 C-3.955 9.125 -4.285 9.125 -4.625 9.125 C-4.75 5.75 -4.75 5.75 -4.625 2.125 C-2.625 0.125 -2.625 0.125 0 0 Z " fill="#ADA3A7" transform="translate(204.625,114.875)"/>
<path d="M0 0 C0.33 0 0.66 0 1 0 C1 2.97 1 5.94 1 9 C-0.98 9 -2.96 9 -5 9 C-4.67 8.34 -4.34 7.68 -4 7 C-3.01 7 -2.02 7 -1 7 C-0.67 4.69 -0.34 2.38 0 0 Z " fill="#F4EEEE" transform="translate(392,270)"/>
<path d="M0 0 C0.99 0 1.98 0 3 0 C2.67 0.99 2.34 1.98 2 3 C-4.0546875 3.9765625 -4.0546875 3.9765625 -6 4 C-6.66 3.34 -7.32 2.68 -8 2 C-5.36 2 -2.72 2 0 2 C0 1.34 0 0.68 0 0 Z " fill="#F4EDEE" transform="translate(218,115)"/>
<path d="M0 0 C-4.29 -0.33 -8.58 -0.66 -13 -1 C-13 -1.33 -13 -1.66 -13 -2 C-11.39884424 -2.2493357 -9.79379841 -2.47378648 -8.1875 -2.6875 C-7.29417969 -2.81511719 -6.40085937 -2.94273437 -5.48046875 -3.07421875 C-3 -3 -3 -3 0 0 Z " fill="#CFC7CC" transform="translate(407,266)"/>
<path d="M0 0 C4.62 0 9.24 0 14 0 C14 0.33 14 0.66 14 1 C8.48727081 2.71084699 5.46809845 3.4606443 0 1 C0 0.67 0 0.34 0 0 Z " fill="#E3DBDC" transform="translate(349,293)"/>
<path d="M0 0 C2 1 2 1 4 3 C2.35 4.65 0.7 6.3 -1 8 C-1.04241723 5.66705225 -1.04092937 3.33297433 -1 1 C-0.67 0.67 -0.34 0.34 0 0 Z " fill="#F5EFEE" transform="translate(262,218)"/>
<path d="M0 0 C1.76462683 3.08809695 2 4.23312136 2 8 C1.01 8 0.02 8 -1 8 C-1.125 2.25 -1.125 2.25 0 0 Z " fill="#B2AEB0" transform="translate(67,255)"/>
<path d="M0 0 C0.763125 0.061875 1.52625 0.12375 2.3125 0.1875 C2.6425 1.1775 2.9725 2.1675 3.3125 3.1875 C0.3425 3.1875 -2.6275 3.1875 -5.6875 3.1875 C-2.6875 0.1875 -2.6875 0.1875 0 0 Z " fill="#E0D7D8" transform="translate(120.6875,232.8125)"/>
</svg>
